<svg id="home" xmlns="http://www.w3.org/2000/svg" viewBox="0 0 51.63 52.15"><title>jwt</title><path d="M50.52,29.79c-3.21-1-6.4-2.06-9.59-3.1-.45-.14-.88-.33-1.61-.61.6-.25.89-.4,1.2-.5,3.29-1.08,6.56-2.18,9.86-3.2,1.18-.36,1.47-1,1-2.09-.54-1.48-1-3-1.47-4.5-.34-1.21-1-1.6-2.18-1.14-1.43.53-2.9.95-4.36,1.42l-6.26,2-.22-.34c.28-.44.54-.89.85-1.31,1.71-2.36,3.43-4.7,5.14-7.06,1.39-1.94,1.37-2-.49-3.37-1.08-.79-2.18-1.54-3.23-2.36S37.63,3,36.91,4C35,6.75,33,9.43,31,12.13c-.21.29-.49.54-.94,1,0-.79-.07-1.26-.08-1.74,0-3.31,0-6.62,0-9.92C30,.31,29.58-.06,28.42,0a39.45,39.45,0,0,1-4.74,0c-1.45-.1-2,.34-2,1.89.11,3.26,0,6.52,0,9.78,0,.4-.07.8-.14,1.55-.52-.68-.82-1.06-1.11-1.45-1.86-2.55-3.71-5.11-5.58-7.66-1.14-1.55-1.19-1.55-2.8-.43-.69.47-1.36,1-2,1.48C6.82,7.6,6.78,6.86,9.32,10.36c1.79,2.46,3.55,4.93,5.6,7.78-1.25-.35-2-.55-2.83-.8-2.77-.9-5.54-1.79-8.3-2.73-1.11-.38-1.76-.13-2.1,1.06-.45,1.62-1,3.21-1.55,4.79-.37,1,0,1.58,1,1.88,1.32.4,2.62.86,3.94,1.29l7.34,2.42c-1.22.44-2,.74-2.78,1-2.77.91-5.53,1.83-8.31,2.68-1.23.38-1.55,1-1.08,2.19.57,1.47,1,3,1.45,4.51.32,1.17,1,1.45,2.09,1.06,3.08-1,6.19-2,9.29-3,.53-.17,1.07-.3,2-.57-.54.8-.8,1.2-1.08,1.59-1.91,2.64-3.79,5.3-5.74,7.91-.78,1.05-.6,1.74.44,2.44,1.31.88,2.6,1.79,3.84,2.77.88.68,1.47.51,2.08-.34,1.6-2.26,3.24-4.48,4.87-6.72l1.87-2.61.33.19c0,.24,0,.48,0,.72,0,3.56,0,7.11,0,10.67,0,1.23.43,1.66,1.63,1.61,1.68-.07,3.36-.08,5,0,1.17,0,1.57-.39,1.55-1.53-.05-3.26,0-6.52,0-9.78,0-.5,0-1,.09-1.92,2.5,3.43,4.73,6.44,6.91,9.48.67.93,1.3,1,2.2.35q2.05-1.59,4.19-3.06c.89-.61,1-1.2.3-2.07-1.66-2.21-3.27-4.46-4.89-6.7-.59-.83-1.15-1.68-1.73-2.52a3.18,3.18,0,0,1,1.7.16c3,1,6.11,2,9.15,3,1.15.39,1.75.07,2.08-1.09.46-1.61,1-3.21,1.55-4.79C51.85,30.64,51.55,30.11,50.52,29.79Zm-17.1-2.33c-1.43.47-1.51.72-.64,1.95.74,1,1.5,2.08,2.52,3.5-1.66-.48-3-.78-4.2-1.24s-1.68,0-1.62,1.27,0,2.43,0,3.64l-.4.15c-.8-1.07-1.65-2.12-2.39-3.23-.63-.93-1.12-1-1.76,0a18.4,18.4,0,0,1-3,3.49c0-1.05,0-2.09,0-3.14,0-2.26-.16-2.36-2.27-1.74-1,.29-2,.6-3,.9l-.24-.29c.76-1.07,1.55-2.13,2.3-3.22.86-1.26.79-1.48-.63-2a18,18,0,0,1-3.73-1.58c1.28-.44,2.56-.92,3.86-1.3,1.11-.33,1.33-.86.62-1.8a17.57,17.57,0,0,1-2.13-3.48c1.06.31,2.13.61,3.18.95,2,.65,2.14.57,2.2-1.6,0-1,0-2.05,0-3.08l.37-.16c.77,1,1.59,2,2.3,3.07s1.21,1.17,1.94,0,1.56-2.1,2.34-3.15l.49.11c0,1.1,0,2.2,0,3.3,0,1.64.33,1.85,1.87,1.4a14.39,14.39,0,0,1,3.65-.73l-2.16,3c-1.05,1.44-1,1.66.68,2.21a16.57,16.57,0,0,1,3.64,1.55Z" style="fill:#4d4d4d"/></svg>