<svg id="home" xmlns="http://www.w3.org/2000/svg" viewBox="0 0 75.14 84.38"><title>APOLLO</title><path d="M46.68,23.9h-8.8l-12.71,33h8l2.2-6H47.13L45,44.9H36.94l5.25-14.48L51.53,56.9H59.4Z" style="fill:#4d4d4d"/><path d="M73.33,66.11a1.77,1.77,0,0,0-1.46.75s-1.56,1.78-2.38,2.63a38.54,38.54,0,0,1-12.26,8.28,38.09,38.09,0,0,1-15,3,38.75,38.75,0,0,1-15-3,38.15,38.15,0,0,1-12.27-8.28A38.87,38.87,0,0,1,6.61,57.23a38.26,38.26,0,0,1-3-15,38.75,38.75,0,0,1,3-15,37.58,37.58,0,0,1,8.25-12.27A38.87,38.87,0,0,1,27.12,6.61a38.23,38.23,0,0,1,15-3,38.75,38.75,0,0,1,15,3,38.33,38.33,0,0,1,9.24,5.55,4.59,4.59,0,0,0-.25,1.42,4.38,4.38,0,1,0,4.38-4.37,3.65,3.65,0,0,0-1.67.35,42.18,42.18,0,1,0,5.72,59.61,1.8,1.8,0,0,0,.53-1.24,1.86,1.86,0,0,0-1.81-1.82Z" style="fill:#4d4d4d"/></svg>