<svg id="home" xmlns="http://www.w3.org/2000/svg" viewBox="0 0 84.85 70"><title>certbot</title><path d="M21.85,7.09V12h-4V7.09a4.14,4.14,0,0,0-1.08,6.25,4,4,0,0,0,3.58,1.4,4.1,4.1,0,0,0,3.52-4.08A4,4,0,0,0,21.85,7.09Z" style="fill:#4d4d4d"/><path d="M57.85,7.09V12h4V7.09a4.14,4.14,0,0,1,1.08,6.25,4,4,0,0,1-3.58,1.4,4.1,4.1,0,0,1-3.52-4.08A4,4,0,0,1,57.85,7.09Z" style="fill:#4d4d4d"/><rect x="31.85" y="49" width="6" height="19" style="fill:#4d4d4d"/><rect x="41.85" y="49" width="6" height="19" style="fill:#4d4d4d"/><path d="M61.73,31l-.9-18H59.09L57.92,31Z" style="fill:#4d4d4d"/><path d="M48.85,34.66s6.24.85,8.87-3.39l4.11,1.16a26.08,26.08,0,0,1-13,10.44Z" style="fill:#4d4d4d"/><circle cx="59.8" cy="32.43" r="2.23" style="fill:#4d4d4d"/><path d="M59.8,35a2.9,2.9,0,1,1,2.9-2.9h0A2.9,2.9,0,0,1,59.8,35Zm0-4a1.56,1.56,0,1,0,1.56,1.56A1.54,1.54,0,0,0,59.82,31Z" style="fill:#4d4d4d"/><circle cx="34.96" cy="59.1" r="2.68" style="fill:#4d4d4d"/><path d="M35,62.45a3.35,3.35,0,0,1,0-6.69c1.83,0,2.68,1.51,2.68,3.34S36.79,62.45,35,62.45ZM34.9,57a2,2,0,0,0-2,2h0a2,2,0,0,0,1.22,1.89,2.07,2.07,0,0,0,2.71-2.73A2,2,0,0,0,34.92,57Z" style="fill:#4d4d4d"/><circle cx="45" cy="59.1" r="2.68" style="fill:#4d4d4d"/><path d="M45,62.45a3.08,3.08,0,0,1-3-3.35,3.05,3.05,0,0,1,3-3.34,3.35,3.35,0,0,1,0,6.69ZM44.9,57a2,2,0,0,0-2,2h0a2,2,0,0,0,1.22,1.89,2.07,2.07,0,0,0,2.71-2.73A2,2,0,0,0,44.92,57Z" style="fill:#4d4d4d"/><path d="M18.23,31l.85-18h1.75L22,31Z" style="fill:#4d4d4d"/><path d="M30.85,34.66s-6.24.85-8.87-3.39l-4.11,1.16a26.08,26.08,0,0,0,13,10.44Z" style="fill:#4d4d4d"/><circle cx="20.11" cy="32.43" r="2.23" style="fill:#4d4d4d"/><path d="M20.11,35A2.9,2.9,0,1,1,23,32.1h0A2.89,2.89,0,0,1,20.13,35Zm0-4.13a1.56,1.56,0,1,0,1.56,1.56A1.58,1.58,0,0,0,20.11,30.87Z" style="fill:#4d4d4d"/><path d="M30.85,33.55l.09-9.25a9,9,0,0,1,17.91.26L48.71,35l-2.86,0L46,24.52a5.85,5.85,0,0,0-1.72-4.15A6,6,0,0,0,40,18.64a6.36,6.36,0,0,0-4.33,1.65,5.53,5.53,0,0,0-1.81,4.1l-.13,9.25Z" style="fill:#4d4d4d"/><circle cx="37.15" cy="26.37" r="1.29" style="fill:#4d4d4d"/><circle cx="43.21" cy="26.37" r="1.29" style="fill:#4d4d4d"/><path d="M40.14,29.36A11.77,11.77,0,1,0,51.91,41.13,11.78,11.78,0,0,0,40.14,29.36ZM41.92,48h-3.3l.45-8.43a2.56,2.56,0,0,1-1.39-2.23,2.46,2.46,0,0,1,4.91,0,2.41,2.41,0,0,1-1.34,2.19Z" style="fill:#4d4d4d"/><path d="M39.33,70a5.5,5.5,0,0,0-10.88,0Z" style="fill:#4d4d4d"/><path d="M51.6,70a5.5,5.5,0,0,0-10.88,0Z" style="fill:#4d4d4d"/><path d="M11.15,4.87A5.85,5.85,0,0,0,6.47,2.25,5.87,5.87,0,0,0,1.74,4.83,9.82,9.82,0,0,0,0,10.54a9.8,9.8,0,0,0,1.74,5.71,5.79,5.79,0,0,0,4.68,2.59,5.94,5.94,0,0,0,4.73-2.59,8.6,8.6,0,0,0,1.56-3.79.61.61,0,0,1,.58-.46l71,0a.62.62,0,0,0,.57-.57V9.62A.64.64,0,0,0,84.32,9H82.38a.58.58,0,0,1-.53-.61h0V.62A.66.66,0,0,0,81.28,0H72.47a.66.66,0,0,0-.62.57V8.43a.6.6,0,0,1-.61.57h-.55s-.59-.18-.58-.51h-.26V2.42c.24-.32,0-.58-.32-.42H68.14c-.32-.18-1.29.38-1.29.38V8.46a.58.58,0,0,1-.62.54H13.33a.56.56,0,0,1-.57-.46A10,10,0,0,0,11.15,4.87ZM7.09,17.05c-2.14,0-4-2.94-4-6.38S5,4.3,7.14,4.3s4,2.94,4,6.37S9.23,17.05,7.09,17.05Z" style="fill:#4d4d4d"/><path d="M22.84,13.11c-.31-.44-.62-.66-.93-1.11H17.85V7.09a4.09,4.09,0,0,0,2,7.67A4.23,4.23,0,0,0,23,13.34C23,13.25,22.89,13.2,22.84,13.11Z" style="fill:#4d4d4d"/><path d="M56.85,13.11c.32-.44.4-.66.72-1.11h4.28V7.09a4.1,4.1,0,0,1,1.57,5.58,4.05,4.05,0,0,1-3.58,2.09,4.2,4.2,0,0,1-3.12-1.42C56.72,13.25,56.76,13.2,56.85,13.11Z" style="fill:#4d4d4d"/></svg>