<svg id="home" xmlns="http://www.w3.org/2000/svg" viewBox="0 0 65.06 82.93"><title>django</title><path d="M43,31.38c0,9.78,0,19.57,0,29.36,0,1.3-.46,1.77-1.65,2A84.49,84.49,0,0,1,22,64.08c-5.81-.34-11.38-1.61-15.93-5.63C2.21,55,.49,50.54.13,45.53A27.06,27.06,0,0,1,1.25,34.27c3-8.28,9.09-12.69,17.55-13.85,3.15-.43,6.44-.05,9.66.12,1.28.06,1.1-.65,1.1-1.37q0-8.57,0-17.12c0-2,0-2,2-2,3.3,0,6.59.06,9.88,0C42.74,0,43,.41,43,1.6,43,11.52,43,21.45,43,31.38ZM30.06,42.72c0-3.2,0-6.4,0-9.59a2,2,0,0,0-.73-1.56c-4.58-2.21-11.61.25-13.82,4.81a14.69,14.69,0,0,0-.83,10.43c.92,3.52,3.12,6,6.69,6.7a44.62,44.62,0,0,0,7.15.35c1.26,0,1.62-.62,1.6-1.83C30,48.93,30.07,45.82,30.06,42.72Z" style="fill:#4d4d4d"/><path d="M39,77.48c2.16-1.37,4.24-2.51,6.12-3.92a15.73,15.73,0,0,0,6.09-11.17,110.12,110.12,0,0,0,.79-12c.11-9,.06-17.91,0-26.86,0-1.41.4-1.84,1.81-1.8,3.25.1,6.5.06,9.74,0,1.06,0,1.48.31,1.48,1.42,0,12.15.1,24.31-.11,36.45-.08,4.68-.33,9.42-2.71,13.76A22.32,22.32,0,0,1,51.8,82.78a1.75,1.75,0,0,1-1.29,0C46.68,81.08,42.87,79.28,39,77.48Z" style="fill:#4d4d4d"/><path d="M64,6.83c0,1.81,0,3.62,0,5.43,0,1-.37,1.32-1.31,1.31q-5.35,0-10.71,0c-.94,0-1.33-.34-1.32-1.31,0-3.66,0-7.32,0-11C50.64.3,51,0,52,0c3.56,0,7.13.06,10.7,0C63.76,0,64,.44,64,1.41,63.94,3.22,64,5,64,6.83Z" style="fill:#4d4d4d"/></svg>