<svg id="home" xmlns="http://www.w3.org/2000/svg" viewBox="0 0 70.88 51.09"><title>docker</title><path d="M54.51,23.4C52.53,17.1,53,13.21,56,10.16a10.46,10.46,0,0,1,5.28,6.4c.34,1.2.9,1.48,2,1.53a38.71,38.71,0,0,1,6,.69c1.64.32,2,1.37,1.09,2.89a9.41,9.41,0,0,1-7.89,4.73,3.05,3.05,0,0,0-3.17,2.19c-4.75,11.67-13.07,19.2-25.63,21.58a41.86,41.86,0,0,1-21.45-1c-5.95-2-9.18-6.56-10.76-12.3A55.43,55.43,0,0,1,0,27.22c-.21-2.32.54-2.87,3.09-2.87,15.11,0,30.21,0,45.32,0A42.44,42.44,0,0,0,54.51,23.4Z" style="fill:#4d4d4d"/><path d="M35.68,6.39c-3.47,0-3.47,0-3.47-3.27C32.21,0,32.21,0,35.62,0c4.16,0,3.75-.45,3.76,3.54,0,2.84,0,2.84-2.92,2.84Z" style="fill:#4d4d4d"/><path d="M35.9,16.34c3.49,0,3.49,0,3.48,3.51,0,2.67,0,2.7-2.71,2.67-5.14-.06-4.33.71-4.49-4.24,0-1.69.52-2.27,2.15-2A8.23,8.23,0,0,0,35.9,16.34Z" style="fill:#4d4d4d"/><path d="M35.69,14.32c-4,0-3.45.27-3.47-3.45,0-2.64,0-2.64,2.7-2.64h.39c4.68.06,3.92-.59,4.11,3.83.09,1.89-.62,2.48-2.36,2.27A10.43,10.43,0,0,0,35.69,14.32Z" style="fill:#4d4d4d"/><path d="M18,22.52c-3.72,0-3.69,0-3.45-4.5.06-1.13.45-1.71,1.62-1.66.46,0,.91,0,1.37,0,4.9,0,4-.41,4.19,4.15.05,1.51-.38,2.23-2,2A14.75,14.75,0,0,0,18,22.52Z" style="fill:#4d4d4d"/><path d="M18.32,14.32c-3.65,0-4.68-1.38-3.64-5.06a1.8,1.8,0,0,1,1.18-1A8.47,8.47,0,0,1,18,8.23c4.32,0,3.59-.48,3.76,3.76.07,1.75-.42,2.6-2.27,2.34A7.61,7.61,0,0,0,18.32,14.32Z" style="fill:#4d4d4d"/><path d="M27,14.32c-3.94,0-3.38.28-3.41-3.49,0-2.59,0-2.59,2.53-2.6h.78c3.89,0,3.43-.47,3.59,3.57.07,1.95-.5,2.84-2.51,2.53A6.4,6.4,0,0,0,27,14.32Z" style="fill:#4d4d4d"/><path d="M9.28,22.52c-3.79,0-3.36.38-3.38-3.29,0-2.86,0-2.86,2.9-2.87,4.16,0,4.11,0,4.06,4.15,0,1.47-.46,2.21-2,2A13.34,13.34,0,0,0,9.28,22.52Z" style="fill:#4d4d4d"/><path d="M26.85,22.52c-3.72,0-3.27.39-3.29-3.4,0-2.75,0-2.77,2.65-2.76,4.75,0,4.12-.49,4.23,4.17,0,1.52-.45,2.21-2,2A13.68,13.68,0,0,0,26.85,22.52Z" style="fill:#4d4d4d"/><path d="M44.66,22.52c-3.88-.05-3.42.5-3.45-3.64,0-2.51,0-2.52,2.7-2.52,4.79,0,4-.37,4.17,4,.07,1.77-.56,2.4-2.24,2.16A9.29,9.29,0,0,0,44.66,22.52Z" style="fill:#4d4d4d"/></svg>