<svg id="home" xmlns="http://www.w3.org/2000/svg" viewBox="0 0 232.59 261.34"><title>graphql</title><path d="M232.59,76.86A23.26,23.26,0,0,1,216.16,99a1.84,1.84,0,0,0-1.59,2.14q.06,29.57,0,59.13a1.85,1.85,0,0,0,1.53,2.08c9.05,3.08,14.63,9.28,16.07,18.78a23,23,0,0,1-19,26.09,22.7,22.7,0,0,1-20.34-6.55,1.47,1.47,0,0,0-2.15-.25q-25.6,14.83-51.26,29.6a1.48,1.48,0,0,0-.88,2,23.11,23.11,0,1,1-45.15,9.47,22.4,22.4,0,0,1,.42-8.82,1.34,1.34,0,0,0-.73-1.79q-20.11-11.56-40.19-23.18c-3.92-2.27-7.85-4.51-11.75-6.8a1.34,1.34,0,0,0-1.92.22,22.77,22.77,0,0,1-14.11,6.34,23.12,23.12,0,0,1-8.36-45.25,1.39,1.39,0,0,0,1.17-1.64q0-29.91,0-59.8c0-1-.39-1.37-1.3-1.67C7.09,96,1.35,89.42.17,79.52A22.74,22.74,0,0,1,17.92,54.4a22.38,22.38,0,0,1,21.15,5.8,1.53,1.53,0,0,0,2.19.22Q66.91,45.55,92.62,30.78a1.89,1.89,0,0,0,1.08-2.51,23.14,23.14,0,1,1,45.35-9.11,22.18,22.18,0,0,1-.38,9.59,1.33,1.33,0,0,0,.74,1.78q24.74,14.24,49.44,28.52c.9.52,1.83,1,2.69,1.57a1.11,1.11,0,0,0,1.63-.21,22.53,22.53,0,0,1,11.4-6.13,23.14,23.14,0,0,1,27.37,17.64C232.3,73.54,232.38,75.22,232.59,76.86ZM116.29,179.11q34.52,0,69,0c1,0,1.52-.26,1.8-1.29a21.47,21.47,0,0,1,5.47-9.42,1.34,1.34,0,0,0,.2-1.93Q181,146.18,169.31,125.83L135.7,67.63Q129.55,57,123.41,46.33c-.32-.56-.63-1-1.39-.77a23.72,23.72,0,0,1-11.54,0,1.49,1.49,0,0,0-1.23.54c-.89,1.37-1.66,2.81-2.48,4.22Q73.25,108.44,39.71,166.48a1.39,1.39,0,0,0,.23,2,21,21,0,0,1,5.34,9.12c.34,1.22.88,1.52,2.08,1.52Q81.82,179.08,116.29,179.11Zm-.05,10.72H47.44a5.43,5.43,0,0,0-1.21,0,.87.87,0,0,0-.62.5,1.26,1.26,0,0,0,.25.86,2.28,2.28,0,0,0,.75.47q25.82,14.91,51.62,29.83a1.61,1.61,0,0,0,2.28-.26A22.56,22.56,0,0,1,120,215.38a21.9,21.9,0,0,1,12.54,6.42,1.38,1.38,0,0,0,2.09.25c1-.64,2-1.16,3-1.74q24.33-14,48.66-28.07c.89-.51,1.13-1.12.6-1.84a2.06,2.06,0,0,0-1.49-.55Q150.81,189.82,116.24,189.83ZM28.61,130.7v30.05c0,.55-.11,1.27.65,1.29.36,0,.86-.45,1.08-.82q6.58-11.29,13.1-22.62L80.65,74.14q9.54-16.51,19.07-33a4.32,4.32,0,0,0,.22-1.47c-.45,0-1-.11-1.35.1q-26.09,15-52.14,30.05a1.41,1.41,0,0,0-.82,1.85A20.61,20.61,0,0,1,45.91,81C44,90.06,38.69,96.15,29.84,99a1.5,1.5,0,0,0-1.25,1.71C28.63,110.73,28.61,120.71,28.61,130.7Zm158.2-59.8.3-.15a5.1,5.1,0,0,0-.88-.8q-26.14-15.12-52.32-30.19a3.5,3.5,0,0,0-1.36-.14,4,4,0,0,0,.19,1.37q10.33,18,20.73,35.95l45.45,78.71c1.07,1.86,2.12,3.74,3.25,5.57.22.37.72.57,1.08.85a9.63,9.63,0,0,0,.61-1.25,2.87,2.87,0,0,0,0-.88V128q0-13.7,0-27.39c0-.82-.2-1.27-1.08-1.48a15,15,0,0,1-2.81-1c-9-4.34-13.63-11.46-13.71-21.45A52.8,52.8,0,0,1,186.81,70.9Z" style="fill:#4d4d4d"/></svg>