<svg id="home" xmlns="http://www.w3.org/2000/svg" viewBox="0 0 67.12 77.9"><title>graphene</title><path d="M55.56,32.44c-7,4.14-13.22,7.78-19.38,11.53-1.73,1.06-3.09,1.36-5,.18-4.79-3-4.87-7.76,0-10.64L58.55,17.34c4-2.37,8.5.09,8.51,4.71,0,11.13,0,22.26.06,33.4a4.71,4.71,0,0,1-2.59,4.68q-14.43,8.38-28.71,17a3.69,3.69,0,0,1-4.39,0Q16.89,68.33,2.22,59.71A3.92,3.92,0,0,1,0,55.85Q.12,38.66,0,21.48a3.84,3.84,0,0,1,2.2-3.83C11.92,12,21.56,6.23,31.25.53c2.2-1.3,6.5-.07,7.9,2.2,1.27,2.06.19,6.31-2,7.6C29.46,14.92,21.76,19.53,14,24a4.15,4.15,0,0,0-2.36,4.13q.15,10.53,0,21.07A4.17,4.17,0,0,0,14,53.39c5.82,3.3,11.53,6.83,17.4,10a5,5,0,0,0,4.06.07c6.07-3.3,12-6.82,18-10.39.91-.54,2-1.68,2.06-2.58C55.65,44.84,55.56,39.14,55.56,32.44Z" style="fill:#4d4d4d"/></svg>