<svg id="Layer_1" data-name="Layer 1" xmlns="http://www.w3.org/2000/svg" viewBox="0 0 1555 2100"><title>Artboard 1</title><line x1="1297" y1="137" x2="1297" y2="966" style="fill:none;stroke:#e00198;stroke-linecap:round;stroke-miterlimit:10;stroke-width:8.215832183361053px"/><line x1="245" y1="137" x2="245" y2="966" style="fill:none;stroke:#e00198;stroke-linecap:round;stroke-miterlimit:10;stroke-width:8.215832183361053px"/><rect x="42" y="55" width="407" height="164" rx="12" style="fill:#e00198"/><path d="M155.33,170.42c-3.12,1.57-9.38,3.13-17.39,3.13-18.57,0-32.54-11.73-32.54-33.32,0-20.62,14-34.59,34.4-34.59,8.21,0,13.39,1.76,15.63,2.93l-2.05,6.94a30.86,30.86,0,0,0-13.29-2.74c-15.44,0-25.7,9.87-25.7,27.16,0,16.13,9.28,26.49,25.31,26.49a34.06,34.06,0,0,0,13.88-2.74Z" style="fill:#fff"/><path d="M166,106.71h8.5v58.73h28.14v7.13H166Z" style="fill:#fff"/><path d="M220.6,106.71v65.86h-8.5V106.71Z" style="fill:#fff"/><path d="M269.55,141.69H244v23.75h28.54v7.13h-37V106.71H271v7.13H244v20.82h25.6Z" style="fill:#fff"/><path d="M283.52,172.57V106.71h9.29L313.91,140a186.62,186.62,0,0,1,11.83,21.4l.19-.1c-.78-8.79-1-16.8-1-27.06V106.71h8v65.86h-8.6l-20.91-33.42a209.46,209.46,0,0,1-12.31-22l-.3.09c.49,8.31.69,16.23.69,27.17v28.14Z" style="fill:#fff"/><path d="M360.32,113.94h-20v-7.23h48.76v7.23H368.92v58.63h-8.6Z" style="fill:#fff"/><rect x="1093.58" y="50" width="407" height="164" rx="12" style="fill:#e00198"/><path d="M1150.56,155.21a30.07,30.07,0,0,0,15.24,4.3c8.7,0,13.78-4.59,13.78-11.23,0-6.16-3.51-9.68-12.41-13.1-10.75-3.81-17.39-9.38-17.39-18.66,0-10.26,8.5-17.88,21.3-17.88,6.74,0,11.63,1.56,14.56,3.22l-2.34,6.94a26.27,26.27,0,0,0-12.51-3.13c-9,0-12.41,5.38-12.41,9.87,0,6.16,4,9.19,13.09,12.7,11.14,4.3,16.81,9.68,16.81,19.35,0,10.16-7.52,19-23.06,19-6.35,0-13.29-1.86-16.81-4.2Z" style="fill:#fff"/><path d="M1234,134.69h-25.6v23.75h28.53v7.13h-37V99.71h35.57v7.13h-27.06v20.82H1234Z" style="fill:#fff"/><path d="M1248,100.59a88.45,88.45,0,0,1,16.32-1.37c9.08,0,15,1.66,19,5.38a16.39,16.39,0,0,1,5.18,12.5c0,8.7-5.47,14.47-12.41,16.81v.3c5.08,1.75,8.11,6.44,9.67,13.28,2.15,9.19,3.72,15.54,5.09,18.08h-8.8c-1.07-1.85-2.54-7.52-4.4-15.73-2-9.09-5.47-12.51-13.19-12.8h-8v28.53H1248Zm8.5,30h8.7c9.08,0,14.85-5,14.85-12.51,0-8.5-6.16-12.21-15.15-12.31a35.05,35.05,0,0,0-8.4.78Z" style="fill:#fff"/><path d="M1316.57,165.57l-21.5-65.86h9.19l10.26,32.44c2.83,8.9,5.27,16.91,7,24.63h.2c1.86-7.62,4.59-15.93,7.52-24.53l11.14-32.54h9.09L1326,165.57Z" style="fill:#fff"/><path d="M1390.73,134.69h-25.6v23.75h28.54v7.13h-37V99.71h35.57v7.13h-27.07v20.82h25.6Z" style="fill:#fff"/><path d="M1404.7,100.59A88.53,88.53,0,0,1,1421,99.22c9.09,0,15,1.66,19.06,5.38a16.39,16.39,0,0,1,5.18,12.5c0,8.7-5.48,14.47-12.41,16.81v.3c5.08,1.75,8.11,6.44,9.67,13.28,2.15,9.19,3.71,15.54,5.08,18.08h-8.79c-1.08-1.85-2.54-7.52-4.4-15.73-2-9.09-5.47-12.51-13.19-12.8h-8v28.53h-8.5Zm8.5,30h8.7c9.09,0,14.85-5,14.85-12.51,0-8.5-6.15-12.21-15.14-12.31a35.09,35.09,0,0,0-8.41.78Z" style="fill:#fff"/><line x1="296" y1="436" x2="1176.13" y2="436" style="fill:none;stroke:#666;stroke-miterlimit:10;stroke-width:8px"/><polygon points="1160.27 459.24 1247 436 1160.27 412.76 1160.27 459.24" style="fill:#666"/><path d="M330.06,401.37l-2.6,7.81h-3.31l8.5-24.82,3.87,0,8.41,24.86H341.5l-2.63-7.82Zm8.15-2.48-2.41-7.16c-.55-1.62-.91-3.09-1.27-4.53h-.08c-.37,1.47-.78,3-1.26,4.49l-2.46,7.18Z" style="fill:#666"/><path d="M350.82,384.41l0,14.7c0,5.56,2.45,7.93,5.76,7.94,3.69,0,6-2.42,6.07-7.91l0-14.7h3.24l0,14.48c0,7.63-4.05,10.75-9.43,10.73-5.08,0-8.9-2.93-8.88-10.63l0-14.63Z" style="fill:#666"/><path d="M376.17,387.2l-7.56,0v-2.72l18.39.05v2.72l-7.59,0-.06,22.11H376.1Z" style="fill:#666"/><path d="M393,384.52l0,10.4,12,0,0-10.39h3.24l-.07,24.83h-3.24l0-11.65-12,0,0,11.64H389.7l.07-24.83Z" style="fill:#666"/><path d="M426.62,397.81l-9.66,0,0,8.95,10.76,0v2.69l-14,0,.07-24.84,13.41,0v2.69l-10.21,0,0,7.85,9.66,0Z" style="fill:#666"/><path d="M431.86,409.47l.07-24.84h3.5l7.92,12.59a70.75,70.75,0,0,1,4.44,8.09l.07,0c-.29-3.32-.35-6.34-.34-10.21l0-10.39h3l-.07,24.83h-3.24l-7.85-12.63a77.3,77.3,0,0,1-4.62-8.3l-.11,0c.17,3.14.24,6.12.23,10.25l0,10.61Z" style="fill:#666"/><path d="M460.88,387.44l-7.55,0v-2.73l18.39.06v2.72l-7.6,0-.06,22.11h-3.24Z" style="fill:#666"/><path d="M477.69,384.76l-.07,24.84h-3.2l.07-24.84Z" style="fill:#666"/><path d="M500.58,408.85A16,16,0,0,1,494,410c-7,0-12.26-4.46-12.24-12.6,0-7.78,5.31-13,13-13a13.2,13.2,0,0,1,5.89,1.12l-.78,2.61a11.61,11.61,0,0,0-5-1c-5.82,0-9.7,3.69-9.72,10.21,0,6.08,3.48,10,9.52,10a13,13,0,0,0,5.24-1Z" style="fill:#666"/><path d="M508.78,401.88l-2.6,7.8h-3.32l8.51-24.81h3.87l8.41,24.86h-3.43l-2.63-7.82Zm8.15-2.49-2.41-7.15c-.55-1.63-.91-3.1-1.28-4.54h-.07c-.37,1.47-.78,3-1.27,4.49l-2.45,7.18Z" style="fill:#666"/><path d="M529.24,387.64l-7.56,0v-2.72l18.39.05v2.73l-7.59,0-.06,22.11h-3.25Z" style="fill:#666"/><path d="M546.05,385,546,409.79h-3.21l.07-24.83Z" style="fill:#666"/><path d="M572.84,397.19c0,8.55-5.23,13.07-11.57,13.05-6.56,0-11.15-5.12-11.13-12.63,0-7.89,4.94-13,11.57-13S572.86,389.82,572.84,397.19Zm-19.27.35c0,5.31,2.84,10.07,7.89,10.09s8-4.66,8-10.3c0-4.94-2.55-10.1-7.89-10.12S553.58,392.09,553.57,397.54Z" style="fill:#666"/><path d="M577,409.88,577,385h3.5l7.92,12.59a69.23,69.23,0,0,1,4.44,8.09l.07,0c-.28-3.32-.35-6.34-.34-10.21l0-10.39h3l-.07,24.83h-3.24l-7.85-12.62a80.93,80.93,0,0,1-4.62-8.3l-.11,0c.18,3.13.24,6.12.23,10.25l0,10.61Z" style="fill:#666"/><path d="M611.75,410l-6.23-24.86h3.39l2.91,12.58c.73,3.1,1.39,6.19,1.82,8.59h.08c.41-2.47,1.19-5.41,2-8.62l3.35-12.52h3.35l3,12.61c.69,3,1.35,5.9,1.71,8.52h.07c.52-2.72,1.23-5.49,2-8.58l3.32-12.52h3.28L628.74,410h-3.35l-3.1-12.95a77.16,77.16,0,0,1-1.6-8.11h-.07a77.55,77.55,0,0,1-1.94,8.1L615.11,410Z" style="fill:#666"/><path d="M642.15,385.23l-.07,24.83h-3.21l.07-24.84Z" style="fill:#666"/><path d="M652.46,388l-7.55,0v-2.72l18.39.05V388l-7.59,0-.06,22.11H652.4Z" style="fill:#666"/><path d="M669.27,385.3l0,10.4,12,0,0-10.39h3.25l-.07,24.83h-3.25l0-11.65-12,0,0,11.64H666l.07-24.83Z" style="fill:#666"/><path d="M701.11,385.39l0,14.71c0,5.56,2.44,7.93,5.76,7.94,3.69,0,6-2.42,6.07-7.91l0-14.7h3.24l0,14.48c0,7.63-4,10.75-9.43,10.73-5.08,0-8.91-2.93-8.89-10.64l0-14.63Z" style="fill:#666"/><path d="M721.24,406.38A11.43,11.43,0,0,0,727,408c3.28,0,5.2-1.72,5.2-4.22,0-2.32-1.31-3.66-4.66-4.95-4-1.45-6.55-3.56-6.54-7.06,0-3.87,3.22-6.74,8-6.72a11.24,11.24,0,0,1,5.49,1.23l-.89,2.61a10,10,0,0,0-4.72-1.19c-3.39,0-4.68,2-4.69,3.71,0,2.32,1.5,3.47,4.93,4.8,4.19,1.64,6.32,3.67,6.31,7.32,0,3.83-2.85,7.14-8.71,7.12a12.77,12.77,0,0,1-6.34-1.6Z" style="fill:#666"/><path d="M752.73,398.73l-9.65,0,0,9,10.76,0v2.69l-14,0,.07-24.84,13.41,0v2.69l-10.21,0,0,7.85,9.65,0Z" style="fill:#666"/><path d="M758,385.89a32.74,32.74,0,0,1,6.15-.5c3.43,0,5.64.64,7.18,2.05a6.14,6.14,0,0,1,1.94,4.72,6.51,6.51,0,0,1-4.69,6.32v.11c1.91.67,3,2.44,3.63,5a38.77,38.77,0,0,0,1.9,6.83h-3.32a32.34,32.34,0,0,1-1.64-5.94c-.73-3.43-2.05-4.72-5-4.84h-3l0,10.76H758Zm3.17,11.32h3.28c3.43,0,5.61-1.87,5.62-4.7,0-3.21-2.31-4.62-5.7-4.66a13.25,13.25,0,0,0-3.17.28Z" style="fill:#666"/><path d="M777.79,410.45l.07-24.84h3.51l7.92,12.59a72.26,72.26,0,0,1,4.44,8.08l.07,0c-.29-3.31-.35-6.33-.34-10.2l0-10.4h3l-.07,24.84H793.2l-7.85-12.62a77.41,77.41,0,0,1-4.62-8.31l-.11,0c.17,3.13.24,6.12.23,10.24l0,10.62Z" style="fill:#666"/><path d="M806.08,402.72l-2.6,7.8h-3.32l8.51-24.81h3.87L821,410.57h-3.43l-2.63-7.82Zm8.15-2.49-2.41-7.15c-.55-1.63-.91-3.1-1.28-4.54h-.07c-.37,1.47-.78,3-1.27,4.49l-2.45,7.18Z" style="fill:#666"/><path d="M845.41,399.73c-.18-3.46-.39-7.63-.34-10.72H845c-.86,2.9-1.9,6-3.16,9.42l-4.42,12H835l-4-11.84c-1.16-3.5-2.15-6.71-2.84-9.66H828c-.08,3.09-.27,7.26-.5,11l-.7,10.65h-3.06l1.8-24.83h4.1l4.2,12c1,3.06,1.86,5.79,2.48,8.37h.11c.64-2.5,1.53-5.22,2.64-8.35l4.46-12h4.09l1.48,24.84H846Z" style="fill:#666"/><path d="M867,399.05l-9.66,0,0,9,10.76,0v2.69l-14,0,.07-24.83,13.42,0v2.69l-10.21,0,0,7.85,9.65,0Z" style="fill:#666"/><path d="M884.05,402.94l-2.6,7.8h-3.32l8.51-24.81h3.87l8.41,24.86h-3.43L892.86,403Zm8.15-2.49-2.41-7.15c-.55-1.63-.91-3.1-1.28-4.54h-.07c-.37,1.47-.78,3-1.26,4.49l-2.46,7.18Z" style="fill:#666"/><path d="M902.57,410.8l.07-24.84h3.5l7.92,12.59a70,70,0,0,1,4.44,8.08l.07,0c-.28-3.32-.35-6.34-.34-10.21l0-10.39h3l-.07,24.83H918l-7.85-12.62a76.46,76.46,0,0,1-4.62-8.31l-.11,0c.17,3.13.24,6.12.23,10.25l0,10.61Z" style="fill:#666"/><path d="M926.88,386.36a45.62,45.62,0,0,1,6.82-.49c4.61,0,7.88,1.09,10,3.12s3.49,4.91,3.48,8.93-1.28,7.36-3.6,9.64-6.17,3.56-11,3.55a52.11,52.11,0,0,1-5.82-.32Zm3.15,22a20.79,20.79,0,0,0,3.24.2c6.85,0,10.58-3.8,10.6-10.51.06-5.86-3.25-9.59-10-9.61a18,18,0,0,0-3.76.32Z" style="fill:#666"/><path d="M959.24,386.42a36.06,36.06,0,0,1,6.15-.46c3.17,0,5.49.75,7,2.08a6.66,6.66,0,0,1,2.16,5.2,7.34,7.34,0,0,1-1.93,5.3c-1.7,1.8-4.47,2.72-7.6,2.71a11.25,11.25,0,0,1-2.58-.23l0,10h-3.2Zm3.17,12a10.86,10.86,0,0,0,2.65.27c3.87,0,6.23-1.86,6.24-5.29,0-3.28-2.31-4.87-5.84-4.88a13,13,0,0,0-3,.25Z" style="fill:#666"/><path d="M979.71,403.21l-2.6,7.8h-3.32l8.51-24.81h3.87l8.41,24.86h-3.43l-2.63-7.82Zm8.15-2.49-2.41-7.15c-.55-1.63-.91-3.1-1.28-4.54h-.07c-.37,1.47-.78,3-1.26,4.49l-2.46,7.18Z" style="fill:#666"/><path d="M997.79,407.16a11.43,11.43,0,0,0,5.75,1.64c3.28,0,5.2-1.72,5.21-4.22,0-2.32-1.32-3.66-4.67-4.95-4.05-1.45-6.55-3.56-6.54-7.06,0-3.87,3.23-6.74,8.05-6.72a11.18,11.18,0,0,1,5.49,1.23l-.89,2.61a10,10,0,0,0-4.71-1.19c-3.4,0-4.69,2-4.69,3.71,0,2.32,1.5,3.47,4.92,4.8,4.2,1.64,6.33,3.67,6.32,7.32,0,3.83-2.86,7.14-8.72,7.12a12.73,12.73,0,0,1-6.33-1.6Z" style="fill:#666"/><path d="M1016,407.21a11.4,11.4,0,0,0,5.75,1.64c3.27,0,5.2-1.72,5.2-4.22,0-2.32-1.31-3.65-4.66-4.95-4-1.45-6.55-3.56-6.54-7.06,0-3.87,3.22-6.73,8-6.72a11.36,11.36,0,0,1,5.49,1.23l-.89,2.61a10,10,0,0,0-4.72-1.19c-3.39,0-4.68,2-4.69,3.71,0,2.32,1.5,3.47,4.93,4.8,4.19,1.64,6.32,3.67,6.31,7.32,0,3.83-2.85,7.14-8.71,7.12a12.77,12.77,0,0,1-6.34-1.6Z" style="fill:#666"/><path d="M1038.61,411.18l-6.23-24.85h3.39l2.91,12.57c.73,3.1,1.39,6.2,1.82,8.59h.08c.41-2.46,1.19-5.41,2.05-8.61l3.35-12.52h3.35l3,12.61c.69,2.95,1.35,5.9,1.71,8.52h.07c.52-2.73,1.23-5.49,2-8.59l3.32-12.52h3.28l-7.11,24.82h-3.35l-3.1-12.94a77.66,77.66,0,0,1-1.6-8.11h-.07a78.15,78.15,0,0,1-1.94,8.1L1042,411.19Z" style="fill:#666"/><path d="M1087,398.64c0,8.55-5.24,13.07-11.58,13.05-6.55,0-11.15-5.11-11.13-12.63,0-7.89,4.94-13,11.58-13S1087,391.27,1087,398.64Zm-19.28.35c0,5.31,2.85,10.07,7.9,10.09s8-4.66,8-10.3c0-4.94-2.55-10.1-7.89-10.12S1067.74,393.54,1067.72,399Z" style="fill:#666"/><path d="M1091.19,386.83a32.85,32.85,0,0,1,6.16-.5c3.42,0,5.63.64,7.18,2.05a6.18,6.18,0,0,1,1.94,4.72,6.52,6.52,0,0,1-4.7,6.32v.11c1.91.67,3,2.44,3.63,5a39.71,39.71,0,0,0,1.9,6.83H1104a32.34,32.34,0,0,1-1.64-5.94c-.73-3.43-2-4.72-5-4.84h-3l0,10.76h-3.21Zm3.18,11.32h3.28c3.42,0,5.6-1.87,5.61-4.7,0-3.21-2.31-4.62-5.7-4.66a13.31,13.31,0,0,0-3.17.28Z" style="fill:#666"/><path d="M1111,386.88a45.42,45.42,0,0,1,6.82-.49c4.6,0,7.88,1.09,10.05,3.12s3.48,4.91,3.47,8.93-1.27,7.36-3.6,9.64-6.16,3.56-11,3.54a49.92,49.92,0,0,1-5.82-.31Zm3.14,22a20.88,20.88,0,0,0,3.24.2c6.86,0,10.59-3.81,10.61-10.51,0-5.86-3.25-9.59-10-9.61a17.92,17.92,0,0,0-3.76.32Z" style="fill:#666"/><line x1="366.87" y1="582" x2="1247" y2="582" style="fill:none;stroke:#666;stroke-miterlimit:10;stroke-width:8px"/><polygon points="382.73 605.24 296 582 382.73 558.76 382.73 605.24" style="fill:#666"/><path d="M505.09,534.67a32.93,32.93,0,0,1,6.16-.5c3.43,0,5.64.64,7.18,2.05a6.19,6.19,0,0,1,1.94,4.72,6.51,6.51,0,0,1-4.7,6.32v.12c1.92.66,3.05,2.43,3.64,5a40.1,40.1,0,0,0,1.89,6.82h-3.31a32,32,0,0,1-1.65-5.94c-.72-3.43-2-4.72-5-4.84h-3l0,10.76H505ZM508.27,546h3.28c3.43,0,5.6-1.87,5.61-4.7,0-3.21-2.31-4.61-5.7-4.66a13.38,13.38,0,0,0-3.17.28Z" style="fill:#666"/><path d="M537.74,547.62l-9.65,0,0,9,10.76,0v2.69l-14,0,.07-24.84,13.41,0v2.69l-10.21,0,0,7.85,9.65,0Z" style="fill:#666"/><path d="M542.55,555.37a11.36,11.36,0,0,0,5.74,1.64c3.28,0,5.2-1.72,5.21-4.22,0-2.32-1.32-3.65-4.67-4.95-4.05-1.45-6.55-3.56-6.54-7.06,0-3.87,3.23-6.74,8.06-6.72a11.28,11.28,0,0,1,5.48,1.23l-.89,2.61a10,10,0,0,0-4.71-1.19c-3.39,0-4.69,2-4.69,3.71,0,2.32,1.5,3.47,4.92,4.8,4.2,1.64,6.33,3.67,6.32,7.32,0,3.83-2.86,7.14-8.72,7.12a12.73,12.73,0,0,1-6.33-1.6Z" style="fill:#666"/><path d="M561.22,534.79a37.13,37.13,0,0,1,6.15-.46c3.17,0,5.49.75,7,2.08a6.66,6.66,0,0,1,2.16,5.2,7.34,7.34,0,0,1-1.93,5.3c-1.7,1.8-4.47,2.72-7.6,2.71a10.71,10.71,0,0,1-2.58-.23l0,10h-3.2Zm3.17,12A10.38,10.38,0,0,0,567,547c3.87,0,6.23-1.86,6.24-5.29s-2.3-4.87-5.84-4.88a13.56,13.56,0,0,0-3,.25Z" style="fill:#666"/><path d="M602,546.77c0,8.55-5.23,13.07-11.57,13.05-6.56,0-11.15-5.12-11.13-12.63,0-7.89,4.94-13,11.57-13S602,539.4,602,546.77Zm-19.27.35c0,5.31,2.84,10.07,7.89,10.08s8-4.65,8-10.29c0-4.94-2.55-10.11-7.89-10.12S582.75,541.67,582.74,547.12Z" style="fill:#666"/><path d="M606.14,559.46l.07-24.84h3.5l7.92,12.59a70,70,0,0,1,4.44,8.08l.07,0c-.28-3.32-.35-6.34-.34-10.21l0-10.39h3l-.07,24.84h-3.25l-7.85-12.62a80,80,0,0,1-4.62-8.31l-.11,0c.18,3.13.24,6.12.23,10.24l0,10.62Z" style="fill:#666"/><path d="M630,555.62a11.43,11.43,0,0,0,5.75,1.64c3.28,0,5.2-1.72,5.21-4.23,0-2.32-1.32-3.65-4.67-4.95-4-1.45-6.55-3.55-6.54-7.05,0-3.87,3.23-6.74,8-6.73a11.28,11.28,0,0,1,5.49,1.24l-.89,2.61a9.89,9.89,0,0,0-4.71-1.19c-3.39,0-4.69,2-4.7,3.71,0,2.32,1.51,3.46,4.93,4.8,4.2,1.63,6.33,3.67,6.32,7.32,0,3.83-2.86,7.14-8.72,7.12a12.84,12.84,0,0,1-6.33-1.6Z" style="fill:#666"/><path d="M661.45,548l-9.66,0,0,9,10.76,0v2.69l-14,0,.07-24.84,13.42,0v2.69l-10.21,0,0,7.85,9.65,0Z" style="fill:#666"/><path d="M665.8,557.75a2.2,2.2,0,1,1,4.39,0,2.2,2.2,0,1,1-4.39,0Zm0-13a2.2,2.2,0,1,1,4.39,0,2.2,2.2,0,1,1-4.39,0Z" style="fill:#666"/><path d="M686.16,551.87l-2.6,7.81h-3.32l8.51-24.82,3.87,0L701,559.73H697.6L695,551.9Zm8.15-2.48-2.41-7.16c-.55-1.62-.91-3.1-1.28-4.53h-.07c-.37,1.47-.78,3-1.27,4.49l-2.45,7.18Z" style="fill:#666"/><path d="M721.48,559a15.82,15.82,0,0,1-6.56,1.16c-7,0-12.26-4.45-12.24-12.6,0-7.77,5.31-13,13-13a13.1,13.1,0,0,1,5.89,1.12l-.78,2.61a11.75,11.75,0,0,0-5-1c-5.82,0-9.7,3.7-9.72,10.22,0,6.08,3.47,10,9.52,10a13,13,0,0,0,5.23-1Z" style="fill:#666"/><path d="M742.08,559a15.82,15.82,0,0,1-6.56,1.16c-7,0-12.26-4.46-12.24-12.6,0-7.77,5.31-13,13-13a13.24,13.24,0,0,1,5.89,1.13l-.78,2.61a11.78,11.78,0,0,0-5-1.05c-5.82,0-9.7,3.7-9.72,10.22,0,6.08,3.47,10,9.52,10a12.79,12.79,0,0,0,5.23-1Z" style="fill:#666"/><path d="M759,548.24l-9.65,0,0,8.95,10.76,0v2.69l-14,0,.07-24.83,13.41,0v2.69l-10.21,0,0,7.85,9.65,0Z" style="fill:#666"/><path d="M763.79,556a11.26,11.26,0,0,0,5.74,1.63c3.28,0,5.2-1.71,5.21-4.22,0-2.32-1.31-3.65-4.66-4.95-4.05-1.45-6.55-3.56-6.54-7.06,0-3.87,3.22-6.73,8.05-6.72a11.36,11.36,0,0,1,5.49,1.23l-.9,2.62a9.74,9.74,0,0,0-4.71-1.19c-3.39,0-4.69,2-4.69,3.7,0,2.33,1.5,3.47,4.92,4.81,4.2,1.63,6.33,3.66,6.32,7.31,0,3.84-2.86,7.14-8.71,7.13a13,13,0,0,1-6.34-1.6Z" style="fill:#666"/><path d="M782,556.05a11.36,11.36,0,0,0,5.74,1.64c3.28,0,5.2-1.72,5.21-4.23,0-2.32-1.32-3.65-4.67-5-4-1.45-6.55-3.55-6.54-7,0-3.87,3.23-6.74,8-6.73a11.41,11.41,0,0,1,5.49,1.23l-.89,2.62a9.77,9.77,0,0,0-4.71-1.19c-3.39,0-4.69,2-4.69,3.71,0,2.32,1.5,3.46,4.92,4.8,4.2,1.63,6.33,3.67,6.32,7.31,0,3.84-2.86,7.15-8.72,7.13a13,13,0,0,1-6.33-1.6Z" style="fill:#666"/><path d="M812.4,552.23l-2.6,7.8h-3.31L815,535.21h3.86l8.41,24.86h-3.43l-2.63-7.82Zm8.15-2.48-2.41-7.16c-.54-1.62-.91-3.1-1.27-4.54h-.08c-.37,1.48-.78,3-1.26,4.49l-2.46,7.18Z" style="fill:#666"/><path d="M830.92,560.09l.07-24.83h3.5l7.92,12.58a69.23,69.23,0,0,1,4.44,8.09l.07,0c-.28-3.32-.35-6.34-.34-10.21l0-10.39h3l-.07,24.83h-3.24l-7.85-12.63a80.93,80.93,0,0,1-4.62-8.3l-.11,0c.18,3.14.24,6.12.23,10.25l0,10.61Z" style="fill:#666"/><path d="M855.23,535.66a45.52,45.52,0,0,1,6.82-.5c4.61,0,7.89,1.09,10.05,3.12s3.49,4.91,3.48,8.93-1.28,7.37-3.6,9.64-6.17,3.56-11,3.55a52.57,52.57,0,0,1-5.83-.31Zm3.15,22a19.84,19.84,0,0,0,3.24.19c6.85,0,10.59-3.8,10.6-10.51.06-5.86-3.25-9.59-10-9.61a18.71,18.71,0,0,0-3.76.32Z" style="fill:#666"/><path d="M887.59,535.75a32.74,32.74,0,0,1,6.15-.5c3.43,0,5.64.64,7.18,2a6.18,6.18,0,0,1,1.94,4.73,6.51,6.51,0,0,1-4.7,6.32v.11c1.92.67,3.05,2.44,3.64,5a40,40,0,0,0,1.89,6.83h-3.31a31.5,31.5,0,0,1-1.64-5.94c-.73-3.43-2-4.72-5-4.84h-3l0,10.76h-3.2Zm3.17,11.32H894c3.43,0,5.61-1.87,5.61-4.7,0-3.21-2.3-4.62-5.69-4.66a13.25,13.25,0,0,0-3.17.28Z" style="fill:#666"/><path d="M920.24,548.7l-9.66,0,0,9,10.76,0v2.69l-14,0,.07-24.84,13.42,0v2.69l-10.21,0,0,7.85,9.65,0Z" style="fill:#666"/><path d="M925.54,535.52l13.38,0v2.69l-10.17,0,0,8.26,9.39,0v2.66l-9.4,0,0,11.24h-3.21Z" style="fill:#666"/><path d="M943.49,535.9a33.67,33.67,0,0,1,6.15-.49c3.43,0,5.64.64,7.18,2a6.18,6.18,0,0,1,1.94,4.73,6.52,6.52,0,0,1-4.7,6.32v.11c1.92.67,3.06,2.44,3.64,5a40,40,0,0,0,1.89,6.83h-3.31a32.6,32.6,0,0,1-1.64-5.94c-.73-3.43-2-4.72-5-4.84h-3l0,10.76h-3.2Zm3.17,11.33h3.28c3.43,0,5.61-1.87,5.61-4.7,0-3.21-2.3-4.62-5.69-4.66a13.25,13.25,0,0,0-3.17.28Z" style="fill:#666"/><path d="M976.14,548.86l-9.66,0,0,9,10.76,0v2.69l-14,0,.07-24.84,13.42,0v2.69l-10.21,0,0,7.85,9.65,0Z" style="fill:#666"/><path d="M980.94,556.61a11.39,11.39,0,0,0,5.74,1.64c3.28,0,5.2-1.72,5.21-4.23,0-2.32-1.31-3.65-4.66-4.95-4.05-1.45-6.55-3.55-6.54-7.05,0-3.87,3.22-6.74,8-6.73a11.34,11.34,0,0,1,5.49,1.24l-.9,2.61a9.93,9.93,0,0,0-4.71-1.19c-3.39,0-4.68,2-4.69,3.71,0,2.32,1.5,3.46,4.93,4.8,4.19,1.63,6.32,3.67,6.31,7.32,0,3.83-2.85,7.14-8.71,7.12a12.88,12.88,0,0,1-6.34-1.6Z" style="fill:#666"/><path d="M1002.82,535.74l0,10.39,12,0,0-10.4h3.24l-.07,24.84h-3.24l0-11.64-12,0,0,11.65h-3.21l.07-24.84Z" style="fill:#666"/><path d="M1034.65,538.56l-7.56,0v-2.73l18.39.05v2.73l-7.59,0-.06,22.11h-3.25Z" style="fill:#666"/><path d="M1068.45,548.09c0,8.54-5.24,13.06-11.57,13-6.56,0-11.16-5.11-11.13-12.63,0-7.88,4.93-13,11.57-13S1068.47,540.72,1068.45,548.09Zm-19.28.35c0,5.3,2.85,10.07,7.9,10.08s8-4.66,8-10.3c0-4.93-2.56-10.1-7.9-10.12S1049.19,543,1049.17,548.44Z" style="fill:#666"/><path d="M1072.64,535.94h3.21l0,12h.11c.66-.95,1.33-1.84,2-2.64l7.61-9.31h4l-9,10.52,9.65,14.32h-3.79l-8.15-12.22-2.36,2.72,0,9.47h-3.21Z" style="fill:#666"/><path d="M1105.44,549.22l-9.65,0,0,8.95,10.76,0v2.69l-14,0,.07-24.84,13.41,0v2.69l-10.2,0,0,7.85,9.66,0Z" style="fill:#666"/><path d="M1110.68,560.88l.07-24.84h3.5l7.92,12.59a69.23,69.23,0,0,1,4.44,8.09l.07,0c-.28-3.32-.35-6.34-.34-10.21l0-10.39h3l-.07,24.83h-3.24l-7.85-12.63a77.3,77.3,0,0,1-4.62-8.3l-.11,0c.17,3.14.24,6.12.23,10.25l0,10.61Z" style="fill:#666"/><line x1="296" y1="727.5" x2="1176.13" y2="727.5" style="fill:none;stroke:#666;stroke-miterlimit:10;stroke-width:8px"/><polygon points="1160.27 750.74 1247 727.5 1160.27 704.26 1160.27 750.74" style="fill:#666"/><path d="M499.5,713.38c-3.35-.9-6.62-1.9-9.5-2.9a4.57,4.57,0,0,0-1.51-.37c-5.89-.24-10.93-4.61-10.9-12.6s4.9-13.07,11.6-13,11.12,5.26,11.1,12.6c0,6.37-3,10.45-7.11,11.88v.15c2.46.63,5.15,1.23,7.25,1.6Zm-2.6-16.19c0-5-2.55-10.1-7.82-10.11s-8.09,5-8.07,10.36,2.85,10,7.86,10S496.88,702.87,496.9,697.19Z" style="fill:#666"/><path d="M507.69,684.92l0,14.7c0,5.56,2.45,7.93,5.76,7.94,3.69,0,6.05-2.42,6.07-7.91l0-14.7h3.24l0,14.48c0,7.63-4.05,10.75-9.43,10.73-5.08,0-8.91-2.93-8.88-10.63l0-14.63Z" style="fill:#666"/><path d="M541.15,698.2l-9.66,0,0,9,10.76,0v2.69l-14,0,.07-24.84,13.41,0v2.69l-10.21,0,0,7.85,9.66,0Z" style="fill:#666"/><path d="M546.45,685.36a32.93,32.93,0,0,1,6.16-.5c3.43,0,5.64.64,7.18,2a6.19,6.19,0,0,1,1.94,4.72A6.51,6.51,0,0,1,557,698v.11c1.92.67,3.05,2.44,3.64,5a40.1,40.1,0,0,0,1.89,6.82h-3.31A32,32,0,0,1,557.6,704c-.72-3.43-2.05-4.72-5-4.84h-3l0,10.76h-3.2Zm3.18,11.32h3.28c3.42,0,5.6-1.86,5.61-4.7,0-3.21-2.31-4.61-5.7-4.66a12.7,12.7,0,0,0-3.17.29Z" style="fill:#666"/><path d="M571.33,709.93l0-10.54-7.81-14.32h3.65l3.48,6.87c1,1.88,1.69,3.39,2.46,5.13h.07c.71-1.62,1.56-3.24,2.52-5.12l3.6-6.84H583l-8.37,14.24,0,10.57Z" style="fill:#666"/><path d="M593.62,685.49a46.78,46.78,0,0,1,6.82-.5c4.61,0,7.88,1.09,10,3.13S614,693,614,697.05s-1.28,7.36-3.61,9.64-6.16,3.56-11,3.54a50.05,50.05,0,0,1-5.82-.31Zm3.14,22a21,21,0,0,0,3.25.2c6.85,0,10.58-3.81,10.6-10.51.06-5.86-3.25-9.59-10-9.61a18,18,0,0,0-3.76.32Z" style="fill:#666"/><path d="M621.62,702.26,619,710.07H615.7l8.51-24.81h3.87l8.4,24.86h-3.43l-2.63-7.82Zm8.15-2.48-2.42-7.16c-.54-1.62-.91-3.09-1.27-4.53H626c-.37,1.47-.78,3-1.26,4.49l-2.45,7.18Z" style="fill:#666"/><path d="M642.07,688l-7.55,0v-2.73l18.39.06v2.72l-7.6,0-.06,22.11H642Z" style="fill:#666"/><path d="M656.88,702.36l-2.6,7.81H651l8.51-24.82,3.87,0,8.41,24.86h-3.43l-2.63-7.82Zm8.15-2.48-2.41-7.16c-.55-1.62-.91-3.1-1.28-4.53h-.07c-.37,1.47-.78,3-1.27,4.49l-2.45,7.18Z" style="fill:#666"/><path d="M685.93,710.26,679.7,685.4h3.39L686,698c.72,3.09,1.38,6.19,1.81,8.59h.08c.41-2.47,1.19-5.42,2.05-8.62l3.35-12.52h3.35l3,12.61c.69,3,1.35,5.9,1.71,8.52h.07c.52-2.73,1.23-5.49,2-8.58l3.31-12.52H710l-7.11,24.81h-3.35l-3.1-12.94a77.16,77.16,0,0,1-1.6-8.11h-.07a77.55,77.55,0,0,1-1.94,8.1l-3.57,12.93Z" style="fill:#666"/><path d="M716.33,685.51l-.07,24.83h-3.21l.07-24.83Z" style="fill:#666"/><path d="M726.64,688.26l-7.55,0v-2.73l18.39,0v2.73l-7.59,0-.06,22.11h-3.24Z" style="fill:#666"/><path d="M743.45,685.58l0,10.39,12,0,0-10.39h3.25l-.07,24.84h-3.25l0-11.64-12,0,0,11.65h-3.2l.07-24.84Z" style="fill:#666"/><path d="M789.37,709.74a16,16,0,0,1-6.56,1.16c-7,0-12.26-4.46-12.24-12.6,0-7.78,5.31-13,13-13a13.35,13.35,0,0,1,5.89,1.12l-.78,2.62a11.6,11.6,0,0,0-5-1c-5.82,0-9.7,3.69-9.72,10.22,0,6.08,3.48,10,9.52,10a12.7,12.7,0,0,0,5.24-1Z" style="fill:#666"/><path d="M793.45,686.05a33.87,33.87,0,0,1,6.16-.49c3.43,0,5.64.64,7.18,2a6.22,6.22,0,0,1,1.94,4.73,6.52,6.52,0,0,1-4.7,6.32v.11c1.92.67,3.05,2.44,3.64,5a40,40,0,0,0,1.89,6.83h-3.31a32.3,32.3,0,0,1-1.65-5.94c-.72-3.43-2.05-4.72-5-4.84h-3l0,10.76h-3.2Zm3.18,11.33h3.28c3.42,0,5.6-1.87,5.61-4.71,0-3.2-2.31-4.61-5.7-4.65a13.38,13.38,0,0,0-3.17.28Z" style="fill:#666"/><path d="M826.1,699l-9.65,0,0,9,10.76,0v2.7l-14,0,.07-24.84,13.41,0v2.69l-10.21,0,0,7.85,9.65,0Z" style="fill:#666"/><path d="M831.41,686.16a45.42,45.42,0,0,1,6.82-.49c4.6,0,7.88,1.09,10,3.12s3.49,4.91,3.47,8.93-1.27,7.36-3.6,9.64-6.16,3.56-11,3.54a50.05,50.05,0,0,1-5.82-.31Zm3.14,22a20.88,20.88,0,0,0,3.24.2c6.86,0,10.59-3.81,10.61-10.51.05-5.86-3.25-9.59-10-9.61a18,18,0,0,0-3.76.32Z" style="fill:#666"/><path d="M868.77,699.13l-9.65,0,0,8.95,10.76,0v2.69l-14,0L856,685.9l13.41,0v2.69l-10.21,0,0,7.85,9.65,0Z" style="fill:#666"/><path d="M874,710.79l.07-24.84h3.5l7.93,12.59a70.49,70.49,0,0,1,4.43,8.08l.08,0c-.29-3.31-.36-6.33-.34-10.2l0-10.4h3l-.07,24.84h-3.25l-7.85-12.62a81,81,0,0,1-4.62-8.31l-.11,0c.18,3.13.24,6.12.23,10.24l0,10.62Z" style="fill:#666"/><path d="M903,688.76l-7.56,0V686l18.39,0v2.73l-7.59,0-.06,22.11H903Z" style="fill:#666"/><path d="M919.85,686.08l-.07,24.84h-3.21l.07-24.84Z" style="fill:#666"/><path d="M929.42,703.13l-2.61,7.81H923.5L932,686.11h3.87l8.4,24.87h-3.43l-2.63-7.82Zm8.15-2.48-2.41-7.16c-.55-1.62-.92-3.1-1.28-4.53h-.08c-.37,1.47-.78,3-1.26,4.49l-2.45,7.18Z" style="fill:#666"/><path d="M948,686.16h3.21l-.07,22.14,10.62,0V711l-13.82,0Z" style="fill:#666"/><path d="M964.89,707.14a11.39,11.39,0,0,0,5.74,1.64c3.28,0,5.2-1.72,5.21-4.23,0-2.32-1.31-3.65-4.66-4.95-4-1.45-6.55-3.56-6.54-7.06,0-3.87,3.22-6.73,8.05-6.72a11.47,11.47,0,0,1,5.49,1.23l-.89,2.62a9.78,9.78,0,0,0-4.72-1.19c-3.39,0-4.68,2-4.69,3.71,0,2.32,1.5,3.46,4.93,4.8,4.19,1.63,6.32,3.67,6.31,7.31,0,3.84-2.85,7.14-8.71,7.13a13,13,0,0,1-6.34-1.6Z" style="fill:#666"/><line x1="366.87" y1="878" x2="1247" y2="878" style="fill:none;stroke:#666;stroke-miterlimit:10;stroke-width:8px"/><polygon points="382.73 901.24 296 878 382.73 854.76 382.73 901.24" style="fill:#666"/><path d="M620.09,830.67a45.52,45.52,0,0,1,6.82-.5c4.61,0,7.89,1.09,10.05,3.12s3.49,4.92,3.48,8.93-1.27,7.37-3.6,9.65-6.17,3.55-11,3.54a52.23,52.23,0,0,1-5.82-.31Zm3.15,22a19.84,19.84,0,0,0,3.24.19c6.85,0,10.59-3.8,10.61-10.51,0-5.86-3.26-9.59-10-9.61a17.93,17.93,0,0,0-3.76.33Z" style="fill:#666"/><path d="M648.09,847.44l-2.6,7.8h-3.32l8.51-24.82h3.87L663,855.29h-3.43l-2.63-7.83Zm8.15-2.48-2.41-7.16c-.55-1.62-.91-3.1-1.28-4.53h-.07c-.38,1.48-.78,3-1.27,4.5l-2.45,7.18Z" style="fill:#666"/><path d="M668.54,833.2l-7.55,0v-2.73l18.39,0v2.73l-7.59,0-.06,22.11h-3.25Z" style="fill:#666"/><path d="M683.35,847.54l-2.6,7.8h-3.31l8.5-24.81h3.87l8.41,24.86h-3.43l-2.63-7.82Zm8.15-2.48-2.41-7.16c-.55-1.62-.91-3.1-1.27-4.53h-.08c-.37,1.48-.78,3-1.26,4.5L684,845Z" style="fill:#666"/><path d="M730.94,842.81c0,8.55-5.23,13.07-11.57,13.05-6.56,0-11.15-5.12-11.13-12.64,0-7.88,4.94-13,11.57-13C726.59,830.23,731,835.44,730.94,842.81Zm-19.27.35c0,5.31,2.84,10.07,7.89,10.08s8-4.66,8-10.29c0-4.94-2.55-10.11-7.89-10.12S711.68,837.71,711.67,843.16Z" style="fill:#666"/><path d="M735.14,831a34.51,34.51,0,0,1,6.15-.5c3.43,0,5.64.65,7.18,2a6.17,6.17,0,0,1,1.94,4.72,6.53,6.53,0,0,1-4.69,6.33v.11c1.92.67,3.06,2.44,3.64,5a38.57,38.57,0,0,0,1.9,6.82h-3.32a32.4,32.4,0,0,1-1.64-5.93c-.73-3.43-2-4.73-5-4.85h-3l0,10.76h-3.2Zm3.17,11.32h3.28c3.43,0,5.61-1.86,5.62-4.7,0-3.2-2.31-4.61-5.7-4.66a13.09,13.09,0,0,0-3.17.29Z" style="fill:#666"/><path d="M775.6,844l-9.66,0,0,8.95,10.76,0v2.7l-14,0,.07-24.84,13.41,0v2.69l-10.21,0,0,7.85,9.66,0Z" style="fill:#666"/><path d="M780.9,831.12a33.8,33.8,0,0,1,6.16-.5c3.43,0,5.64.65,7.18,2a6.21,6.21,0,0,1,1.94,4.72,6.53,6.53,0,0,1-4.7,6.33v.11c1.92.67,3,2.44,3.63,5a40.48,40.48,0,0,0,1.9,6.82H793.7a32.1,32.1,0,0,1-1.65-5.93c-.72-3.43-2-4.73-5-4.85h-3l0,10.76h-3.21Zm3.18,11.32h3.28c3.42,0,5.6-1.86,5.61-4.7,0-3.21-2.31-4.61-5.7-4.66a13.21,13.21,0,0,0-3.17.29Z" style="fill:#666"/><path d="M800.73,831.18a32.74,32.74,0,0,1,6.15-.5c3.43,0,5.64.64,7.18,2.05a6.14,6.14,0,0,1,1.94,4.72,6.5,6.5,0,0,1-4.69,6.32v.11c1.91.67,3.05,2.44,3.63,5a38.85,38.85,0,0,0,1.9,6.82h-3.32a32.34,32.34,0,0,1-1.64-5.94c-.73-3.43-2-4.72-5-4.84h-3l0,10.76h-3.21Zm3.17,11.32h3.28c3.43,0,5.61-1.87,5.62-4.7,0-3.21-2.31-4.61-5.7-4.66a13.25,13.25,0,0,0-3.17.28Z" style="fill:#666"/><path d="M841.86,843.12c0,8.55-5.24,13.07-11.57,13-6.56,0-11.16-5.12-11.13-12.63,0-7.89,4.93-13,11.57-13S841.88,835.75,841.86,843.12Zm-19.28.35c0,5.31,2.85,10.07,7.9,10.09s8-4.66,8-10.3c0-4.94-2.55-10.1-7.9-10.12S822.6,838,822.58,843.47Z" style="fill:#666"/><path d="M846.05,831.3a33.87,33.87,0,0,1,6.16-.49c3.43,0,5.64.64,7.18,2a6.22,6.22,0,0,1,1.94,4.73,6.52,6.52,0,0,1-4.7,6.32V844c1.91.67,3,2.44,3.63,5a39.71,39.71,0,0,0,1.9,6.83h-3.32a32.34,32.34,0,0,1-1.64-5.94c-.72-3.43-2.05-4.72-5-4.84h-3l0,10.76H846Zm3.18,11.33h3.28c3.42,0,5.6-1.87,5.61-4.7,0-3.21-2.31-4.62-5.7-4.66a13.38,13.38,0,0,0-3.17.28Z" style="fill:#666"/><path d="M894.58,845c-.17-3.46-.38-7.63-.34-10.72h-.11c-.85,2.9-1.89,6-3.16,9.42l-4.42,12h-2.43l-4-11.84c-1.17-3.5-2.16-6.71-2.85-9.66h-.07c-.08,3.09-.28,7.26-.51,11L876,855.89H873l1.8-24.84,4.09,0,4.2,12c1,3.06,1.87,5.79,2.49,8.37h.11c.63-2.5,1.52-5.22,2.64-8.35l4.45-12h4.09L898.31,856h-3.13Z" style="fill:#666"/><path d="M916.14,844.36l-9.65,0,0,8.95,10.76,0V856l-14,0,.07-24.84,13.41,0v2.69l-10.2,0,0,7.85,9.66,0Z" style="fill:#666"/><path d="M921,852.12a11.35,11.35,0,0,0,5.74,1.63c3.28,0,5.2-1.71,5.21-4.22,0-2.32-1.32-3.65-4.67-4.95-4.05-1.45-6.55-3.56-6.54-7.06,0-3.87,3.23-6.73,8-6.72a11.29,11.29,0,0,1,5.49,1.23l-.89,2.62a9.77,9.77,0,0,0-4.71-1.19c-3.39,0-4.69,2-4.69,3.7,0,2.32,1.5,3.47,4.92,4.81,4.2,1.63,6.33,3.66,6.32,7.31,0,3.83-2.86,7.14-8.72,7.13a12.84,12.84,0,0,1-6.33-1.61Z" style="fill:#666"/><path d="M939.11,852.17a11.29,11.29,0,0,0,5.75,1.63c3.28,0,5.2-1.71,5.2-4.22,0-2.32-1.31-3.65-4.66-5-4-1.45-6.55-3.56-6.54-7.06,0-3.87,3.22-6.73,8-6.72a11.47,11.47,0,0,1,5.49,1.23l-.89,2.62a9.78,9.78,0,0,0-4.72-1.19c-3.39,0-4.68,2-4.69,3.7,0,2.33,1.5,3.47,4.93,4.81,4.19,1.63,6.32,3.66,6.31,7.31,0,3.84-2.85,7.14-8.71,7.13a13,13,0,0,1-6.34-1.6Z" style="fill:#666"/><path d="M961.75,848.33l-2.6,7.8h-3.32l8.51-24.81h3.87l8.4,24.86h-3.42l-2.63-7.82Zm8.15-2.49-2.41-7.15c-.55-1.63-.91-3.1-1.28-4.54h-.07c-.38,1.47-.78,3-1.27,4.49l-2.45,7.18Z" style="fill:#666"/><path d="M998.62,855.14a23.21,23.21,0,0,1-7.64,1.34c-3.75,0-6.85-1-9.27-3.31a12.79,12.79,0,0,1-3.44-9.26c.06-7.4,5.16-12.81,13.49-12.78a15.14,15.14,0,0,1,6.18,1.16l-.78,2.61a12.81,12.81,0,0,0-5.49-1.08c-6,0-10,3.73-10,10s3.77,10,9.55,10.05a10.49,10.49,0,0,0,4.28-.66l0-7.4-5,0v-2.58l8.18,0Z" style="fill:#666"/><path d="M1016.41,844.65l-9.66,0,0,9,10.76,0v2.69l-14,0,.07-24.83,13.42,0v2.69l-10.21,0,0,7.85,9.65,0Z" style="fill:#666"/><line x1="1297" y1="1194" x2="1297" y2="2021" style="fill:none;stroke:#e00198;stroke-linecap:round;stroke-miterlimit:10;stroke-width:8.205915557170664px"/><line x1="245" y1="1194" x2="245" y2="2021" style="fill:none;stroke:#e00198;stroke-linecap:round;stroke-miterlimit:10;stroke-width:8.205915557170664px"/><line x1="245" y1="1169" x2="245" y2="1168.5" style="fill:none;stroke:#e00198;stroke-linecap:round;stroke-miterlimit:10;stroke-width:8.216px"/><line x1="245" y1="1126.78" x2="245" y2="1019.36" style="fill:none;stroke:#e00198;stroke-linecap:round;stroke-miterlimit:10;stroke-width:8.216px;stroke-dasharray:1.0429447889328003,41.71779251098633"/><line x1="245" y1="998.5" x2="245" y2="998" style="fill:none;stroke:#e00198;stroke-linecap:round;stroke-miterlimit:10;stroke-width:8.216px"/><line x1="1297" y1="1166" x2="1297" y2="1165.5" style="fill:none;stroke:#e00198;stroke-linecap:round;stroke-miterlimit:10;stroke-width:8.216px"/><line x1="1297" y1="1123.78" x2="1297" y2="1016.36" style="fill:none;stroke:#e00198;stroke-linecap:round;stroke-miterlimit:10;stroke-width:8.216px;stroke-dasharray:1.0429447889328003,41.71779251098633"/><line x1="1297" y1="995.5" x2="1297" y2="995" style="fill:none;stroke:#e00198;stroke-linecap:round;stroke-miterlimit:10;stroke-width:8.216px"/><path d="M435.16,1092.54l-5,15.11h-6.42l16.32-48h7.49l16.38,48h-6.62l-5.13-15.11Zm15.74-4.84-4.7-13.82c-1.07-3.14-1.78-6-2.49-8.77h-.15c-.71,2.85-1.49,5.77-2.42,8.69l-4.7,13.9Z" style="fill:#666"/><path d="M503.49,1106.08c-2.28,1.14-6.84,2.28-12.68,2.28-13.54,0-23.73-8.55-23.73-24.3,0-15,10.19-25.22,25.08-25.22,6,0,9.77,1.28,11.41,2.14l-1.5,5.06a22.57,22.57,0,0,0-9.69-2c-11.26,0-18.74,7.2-18.74,19.81,0,11.76,6.77,19.31,18.45,19.31a24.82,24.82,0,0,0,10.12-2Z" style="fill:#666"/><path d="M543.33,1106.08c-2.28,1.14-6.84,2.28-12.69,2.28-13.54,0-23.72-8.55-23.72-24.3,0-15,10.18-25.22,25.08-25.22,6,0,9.76,1.28,11.4,2.14l-1.5,5.06a22.57,22.57,0,0,0-9.69-2c-11.26,0-18.74,7.2-18.74,19.81,0,11.76,6.77,19.31,18.46,19.31a24.89,24.89,0,0,0,10.12-2Z" style="fill:#666"/><path d="M576,1085.13H557.29v17.32H578.1v5.2h-27v-48H577v5.21H557.29V1080H576Z" style="fill:#666"/><path d="M585.3,1100.1a22,22,0,0,0,11.12,3.13c6.34,0,10-3.35,10-8.19,0-4.49-2.56-7.06-9.05-9.55-7.84-2.78-12.68-6.84-12.68-13.61,0-7.48,6.2-13,15.53-13a21.85,21.85,0,0,1,10.62,2.35l-1.71,5.06a19.18,19.18,0,0,0-9.12-2.28c-6.56,0-9,3.92-9,7.2,0,4.49,2.92,6.7,9.55,9.26,8.12,3.14,12.26,7.06,12.26,14.11,0,7.41-5.49,13.82-16.82,13.82-4.63,0-9.69-1.35-12.26-3.06Z" style="fill:#666"/><path d="M620.43,1100.1a22,22,0,0,0,11.12,3.13c6.34,0,10-3.35,10-8.19,0-4.49-2.56-7.06-9.05-9.55-7.83-2.78-12.68-6.84-12.68-13.61,0-7.48,6.2-13,15.54-13a21.84,21.84,0,0,1,10.61,2.35l-1.71,5.06a19.18,19.18,0,0,0-9.12-2.28c-6.55,0-9,3.92-9,7.2,0,4.49,2.92,6.7,9.55,9.26,8.12,3.14,12.26,7.06,12.26,14.11,0,7.41-5.49,13.82-16.82,13.82-4.63,0-9.69-1.35-12.26-3.06Z" style="fill:#666"/><path d="M677.72,1064.9h-14.6v-5.28h35.55v5.28H684v42.75h-6.27Z" style="fill:#666"/><path d="M743.14,1083.14c0,16.53-10,25.3-22.3,25.3-12.69,0-21.6-9.84-21.6-24.38,0-15.24,9.48-25.22,22.31-25.22C734.66,1058.84,743.14,1068.89,743.14,1083.14Zm-37.27.78c0,10.26,5.56,19.46,15.32,19.46s15.39-9.05,15.39-20c0-9.54-5-19.52-15.32-19.52S705.87,1073.38,705.87,1083.92Z" style="fill:#666"/><path d="M751.19,1059.62h6.2v23.16h.22c1.28-1.85,2.56-3.56,3.77-5.13l14.68-18h7.7L766.37,1080l18.74,27.65h-7.34L762,1084.06l-4.56,5.28v18.31h-6.2Z" style="fill:#666"/><path d="M814.68,1085.13H796v17.32h20.81v5.2h-27v-48h25.93v5.21H796V1080h18.67Z" style="fill:#666"/><path d="M824.88,1107.65v-48h6.76l15.4,24.3a136.14,136.14,0,0,1,8.62,15.61l.14-.07c-.57-6.42-.71-12.26-.71-19.74v-20.1h5.84v48h-6.27l-15.25-24.37a153.33,153.33,0,0,1-9-16l-.21.07c.36,6.06.5,11.83.5,19.81v20.52Z" style="fill:#666"/><path d="M911.74,1085.13H893.07v17.32h20.81v5.2h-27v-48h25.94v5.21H893.07V1080h18.67Z" style="fill:#666"/><path d="M948.22,1107.65,942.09,1097c-2.49-4.06-4.06-6.69-5.55-9.47h-.15c-1.35,2.78-2.7,5.34-5.2,9.55l-5.77,10.54h-7.13l14.68-24.3-14.11-23.73h7.2l6.34,11.26c1.78,3.14,3.14,5.56,4.42,8.13H937c1.35-2.85,2.56-5.06,4.34-8.13l6.56-11.26h7.12L940.46,1083l15,24.65Z" style="fill:#666"/><path d="M962.62,1060.19a71.78,71.78,0,0,1,11.9-.92c6.13,0,10.62,1.42,13.47,4a12.92,12.92,0,0,1,4.2,10c0,4.35-1.28,7.77-3.7,10.27-3.28,3.49-8.63,5.27-14.68,5.27a21.09,21.09,0,0,1-5-.43v19.24h-6.2Zm6.2,23.16a20.56,20.56,0,0,0,5.13.5c7.48,0,12-3.63,12-10.26,0-6.34-4.49-9.41-11.33-9.41a26.26,26.26,0,0,0-5.84.5Z" style="fill:#666"/><path d="M1006.73,1059.62v48h-6.2v-48Z" style="fill:#666"/><path d="M1017.56,1060.26a64.66,64.66,0,0,1,11.9-1c6.63,0,10.9,1.21,13.89,3.92a11.92,11.92,0,0,1,3.78,9.12c0,6.34-4,10.54-9.05,12.25v.22c3.71,1.28,5.92,4.7,7.06,9.69,1.56,6.7,2.7,11.33,3.7,13.18h-6.41c-.79-1.35-1.85-5.49-3.21-11.47-1.42-6.63-4-9.12-9.62-9.34h-5.84v20.81h-6.2Zm6.2,21.88h6.34c6.63,0,10.83-3.63,10.83-9.12,0-6.2-4.49-8.91-11-9a25.77,25.77,0,0,0-6.13.57Z" style="fill:#666"/><path d="M1080.77,1085.13H1062.1v17.32h20.8v5.2h-27v-48h25.93v5.21H1062.1V1080h18.67Z" style="fill:#666"/><path d="M1091,1060.26a88.74,88.74,0,0,1,13.18-1c8.91,0,15.25,2.06,19.45,6s6.77,9.48,6.77,17.25-2.42,14.25-6.91,18.67-11.9,6.91-21.23,6.91a99.12,99.12,0,0,1-11.26-.57Zm6.2,42.47a38.4,38.4,0,0,0,6.27.36c13.25,0,20.45-7.41,20.45-20.38.07-11.33-6.34-18.53-19.46-18.53a34.74,34.74,0,0,0-7.26.65Z" style="fill:#666"/><line x1="296" y1="1273" x2="1176.13" y2="1273" style="fill:none;stroke:#666;stroke-miterlimit:10;stroke-width:8px"/><polygon points="1160.27 1296.24 1247 1273 1160.27 1249.76 1160.27 1296.24" style="fill:#666"/><path d="M499.5,1258.88c-3.35-.9-6.62-1.9-9.5-2.9a4.57,4.57,0,0,0-1.51-.37c-5.89-.24-10.93-4.61-10.9-12.6s4.9-13.07,11.6-13,11.12,5.26,11.1,12.6c0,6.37-3,10.45-7.11,11.88v.15c2.46.63,5.15,1.23,7.25,1.6Zm-2.6-16.19c0-5-2.55-10.1-7.82-10.11s-8.09,5-8.07,10.36,2.85,10,7.86,10S496.88,1248.37,496.9,1242.69Z" style="fill:#666"/><path d="M507.69,1230.42l0,14.7c0,5.56,2.45,7.93,5.76,7.94,3.69,0,6.05-2.42,6.07-7.91l0-14.7h3.24l0,14.48c0,7.63-4.05,10.75-9.43,10.73-5.08,0-8.91-2.93-8.88-10.63l0-14.63Z" style="fill:#666"/><path d="M541.15,1243.7l-9.66,0,0,9,10.76,0v2.69l-14,0,.07-24.84,13.41,0v2.69l-10.21,0,0,7.85,9.66,0Z" style="fill:#666"/><path d="M546.45,1230.86a32.93,32.93,0,0,1,6.16-.5c3.43,0,5.64.64,7.18,2.05a6.19,6.19,0,0,1,1.94,4.72,6.51,6.51,0,0,1-4.7,6.32v.11c1.92.67,3.05,2.44,3.64,5a40.1,40.1,0,0,0,1.89,6.82h-3.31a32,32,0,0,1-1.65-5.94c-.72-3.43-2.05-4.72-5-4.84h-3l0,10.76h-3.2Zm3.18,11.32h3.28c3.42,0,5.6-1.86,5.61-4.7,0-3.21-2.31-4.61-5.7-4.66a12.7,12.7,0,0,0-3.17.29Z" style="fill:#666"/><path d="M571.33,1255.43l0-10.54-7.81-14.32h3.65l3.48,6.87c1,1.88,1.69,3.39,2.46,5.13h.07c.71-1.62,1.56-3.24,2.52-5.12l3.6-6.84H583l-8.37,14.24,0,10.57Z" style="fill:#666"/><path d="M593.62,1231a46.78,46.78,0,0,1,6.82-.5c4.61,0,7.88,1.09,10,3.13s3.49,4.91,3.48,8.93-1.28,7.36-3.61,9.64-6.16,3.56-11,3.54a50.05,50.05,0,0,1-5.82-.31Zm3.14,22a21,21,0,0,0,3.25.2c6.85,0,10.58-3.81,10.6-10.51.06-5.86-3.25-9.59-10-9.61a18,18,0,0,0-3.76.32Z" style="fill:#666"/><path d="M621.62,1247.76l-2.61,7.81H615.7l8.51-24.81h3.87l8.4,24.86h-3.43l-2.63-7.82Zm8.15-2.48-2.42-7.16c-.54-1.62-.91-3.09-1.27-4.53H626c-.37,1.47-.78,3-1.26,4.49l-2.45,7.18Z" style="fill:#666"/><path d="M642.07,1233.52l-7.55,0v-2.73l18.39.06v2.72l-7.6,0-.06,22.11H642Z" style="fill:#666"/><path d="M656.88,1247.86l-2.6,7.81H651l8.51-24.82,3.87,0,8.41,24.86h-3.43l-2.63-7.82Zm8.15-2.48-2.41-7.16c-.55-1.62-.91-3.1-1.28-4.53h-.07c-.37,1.47-.78,3-1.27,4.49l-2.45,7.18Z" style="fill:#666"/><path d="M685.93,1255.76l-6.23-24.86h3.39l2.92,12.58c.72,3.09,1.38,6.19,1.81,8.59h.08c.41-2.47,1.19-5.42,2.05-8.62l3.35-12.52h3.35l3,12.61c.69,3,1.35,5.9,1.71,8.52h.07c.52-2.73,1.23-5.49,2-8.58l3.31-12.52H710l-7.11,24.81h-3.35l-3.1-12.94a77.16,77.16,0,0,1-1.6-8.11h-.07a77.55,77.55,0,0,1-1.94,8.1l-3.57,12.93Z" style="fill:#666"/><path d="M716.33,1231l-.07,24.83h-3.21l.07-24.83Z" style="fill:#666"/><path d="M726.64,1233.76l-7.55,0V1231l18.39,0v2.73l-7.59,0-.06,22.11h-3.24Z" style="fill:#666"/><path d="M743.45,1231.08l0,10.39,12,0,0-10.39h3.25l-.07,24.84h-3.25l0-11.64-12,0,0,11.65h-3.2l.07-24.84Z" style="fill:#666"/><path d="M789.37,1255.24a16,16,0,0,1-6.56,1.16c-7,0-12.26-4.46-12.24-12.6,0-7.78,5.31-13,13-13a13.35,13.35,0,0,1,5.89,1.12l-.78,2.62a11.6,11.6,0,0,0-5-1c-5.82,0-9.7,3.69-9.72,10.22,0,6.08,3.48,10,9.52,10a12.7,12.7,0,0,0,5.24-1Z" style="fill:#666"/><path d="M793.45,1231.55a33.87,33.87,0,0,1,6.16-.49c3.43,0,5.64.64,7.18,2a6.22,6.22,0,0,1,1.94,4.73,6.52,6.52,0,0,1-4.7,6.32v.11c1.92.67,3.05,2.44,3.64,5a40,40,0,0,0,1.89,6.83h-3.31a32.3,32.3,0,0,1-1.65-5.94c-.72-3.43-2.05-4.72-5-4.84h-3l0,10.76h-3.2Zm3.18,11.33h3.28c3.42,0,5.6-1.87,5.61-4.71,0-3.2-2.31-4.61-5.7-4.65a13.38,13.38,0,0,0-3.17.28Z" style="fill:#666"/><path d="M826.1,1244.51l-9.65,0,0,9,10.76,0v2.7l-14,0,.07-24.84,13.41,0V1234l-10.21,0,0,7.85,9.65,0Z" style="fill:#666"/><path d="M831.41,1231.66a45.42,45.42,0,0,1,6.82-.49c4.6,0,7.88,1.09,10,3.12s3.49,4.91,3.47,8.93-1.27,7.36-3.6,9.64-6.16,3.56-11,3.54a50.05,50.05,0,0,1-5.82-.31Zm3.14,22a20.88,20.88,0,0,0,3.24.2c6.86,0,10.59-3.81,10.61-10.51.05-5.86-3.25-9.59-10-9.61a18,18,0,0,0-3.76.32Z" style="fill:#666"/><path d="M868.77,1244.63l-9.65,0,0,9,10.76,0v2.69l-14,0,.07-24.84,13.41,0v2.69l-10.21,0,0,7.85,9.65,0Z" style="fill:#666"/><path d="M874,1256.29l.07-24.84h3.5l7.93,12.59a70.49,70.49,0,0,1,4.43,8.08l.08,0c-.29-3.31-.36-6.33-.34-10.2l0-10.4h3l-.07,24.84h-3.25l-7.85-12.62a81,81,0,0,1-4.62-8.31l-.11,0c.18,3.13.24,6.12.23,10.24l0,10.62Z" style="fill:#666"/><path d="M903,1234.26l-7.56,0v-2.73l18.39,0v2.73l-7.59,0-.06,22.11H903Z" style="fill:#666"/><path d="M919.85,1231.58l-.07,24.84h-3.21l.07-24.84Z" style="fill:#666"/><path d="M929.42,1248.63l-2.61,7.81H923.5l8.51-24.82h3.87l8.4,24.87h-3.43l-2.63-7.82Zm8.15-2.48-2.41-7.16c-.55-1.62-.92-3.1-1.28-4.53h-.08c-.37,1.47-.78,3-1.26,4.49l-2.45,7.18Z" style="fill:#666"/><path d="M948,1231.66h3.21l-.07,22.14,10.62,0v2.7l-13.82,0Z" style="fill:#666"/><path d="M964.89,1252.64a11.39,11.39,0,0,0,5.74,1.64c3.28,0,5.2-1.72,5.21-4.23,0-2.32-1.31-3.65-4.66-5-4-1.45-6.55-3.56-6.54-7.06,0-3.87,3.22-6.73,8.05-6.72a11.47,11.47,0,0,1,5.49,1.23l-.89,2.62a9.78,9.78,0,0,0-4.72-1.19c-3.39,0-4.68,2-4.69,3.71,0,2.32,1.5,3.46,4.93,4.8,4.19,1.63,6.32,3.67,6.31,7.31,0,3.84-2.85,7.14-8.71,7.13a13,13,0,0,1-6.34-1.6Z" style="fill:#666"/><line x1="366.87" y1="1406.8" x2="1247" y2="1406.8" style="fill:none;stroke:#666;stroke-miterlimit:10;stroke-width:8px"/><polygon points="382.73 1430.04 296 1406.8 382.73 1383.56 382.73 1430.04" style="fill:#666"/><path d="M553.09,1359.47a32.93,32.93,0,0,1,6.16-.5c3.43,0,5.64.64,7.18,2a6.19,6.19,0,0,1,1.94,4.72,6.51,6.51,0,0,1-4.7,6.32v.11c1.92.67,3.05,2.44,3.64,5a40.1,40.1,0,0,0,1.89,6.82h-3.31a32,32,0,0,1-1.65-5.94c-.72-3.43-2-4.72-5-4.84h-3l0,10.76H553Zm3.18,11.32h3.28c3.43,0,5.6-1.86,5.61-4.7,0-3.21-2.31-4.61-5.7-4.66a13.38,13.38,0,0,0-3.17.28Z" style="fill:#666"/><path d="M585.74,1372.42l-9.65,0,0,9,10.76,0v2.69l-14,0,.07-24.84,13.41,0v2.69l-10.21,0,0,7.85,9.65,0Z" style="fill:#666"/><path d="M590.55,1380.17a11.36,11.36,0,0,0,5.74,1.64c3.28,0,5.2-1.72,5.21-4.22,0-2.32-1.32-3.65-4.67-4.95-4.05-1.45-6.55-3.56-6.54-7.06,0-3.87,3.23-6.74,8.06-6.72a11.28,11.28,0,0,1,5.48,1.23l-.89,2.61a10,10,0,0,0-4.71-1.19c-3.39,0-4.69,2-4.69,3.71,0,2.32,1.5,3.47,4.92,4.8,4.2,1.64,6.33,3.67,6.32,7.32,0,3.83-2.86,7.14-8.72,7.12a12.73,12.73,0,0,1-6.33-1.6Z" style="fill:#666"/><path d="M609.22,1359.59a37.13,37.13,0,0,1,6.15-.46c3.17,0,5.49.75,7,2.08a6.66,6.66,0,0,1,2.16,5.2,7.34,7.34,0,0,1-1.93,5.3c-1.7,1.8-4.47,2.72-7.6,2.71a10.71,10.71,0,0,1-2.58-.23l0,10h-3.2Zm3.17,12a10.38,10.38,0,0,0,2.65.27c3.87,0,6.23-1.86,6.24-5.29,0-3.28-2.3-4.87-5.84-4.88a13.56,13.56,0,0,0-3,.25Z" style="fill:#666"/><path d="M650,1371.57c0,8.55-5.23,13.07-11.57,13-6.56,0-11.15-5.12-11.13-12.63,0-7.89,4.94-13,11.57-13S650,1364.2,650,1371.57Zm-19.27.35c0,5.31,2.84,10.07,7.89,10.08s8-4.65,8-10.29c0-4.94-2.55-10.11-7.89-10.12S630.75,1366.47,630.74,1371.92Z" style="fill:#666"/><path d="M654.14,1384.26l.07-24.84h3.5l7.92,12.59a70,70,0,0,1,4.44,8.08l.07,0c-.28-3.32-.35-6.34-.34-10.21l0-10.39h3l-.07,24.84h-3.25l-7.85-12.62a80,80,0,0,1-4.62-8.31l-.11,0c.18,3.13.24,6.12.23,10.24l0,10.62Z" style="fill:#666"/><path d="M678,1380.42a11.43,11.43,0,0,0,5.75,1.64c3.28,0,5.2-1.72,5.21-4.23,0-2.32-1.32-3.65-4.67-4.95-4-1.45-6.55-3.55-6.54-7.05,0-3.87,3.23-6.74,8-6.72a11.18,11.18,0,0,1,5.49,1.23l-.89,2.61a9.89,9.89,0,0,0-4.71-1.19c-3.39,0-4.69,2-4.7,3.71,0,2.32,1.51,3.46,4.93,4.8,4.2,1.63,6.33,3.67,6.32,7.31,0,3.84-2.86,7.15-8.72,7.13a12.84,12.84,0,0,1-6.33-1.6Z" style="fill:#666"/><path d="M709.45,1372.77l-9.66,0,0,9,10.76,0v2.69l-14,0,.07-24.84,13.42,0v2.69l-10.21,0,0,7.85,9.65,0Z" style="fill:#666"/><path d="M713.8,1382.55a2.2,2.2,0,1,1,4.39,0,2.2,2.2,0,1,1-4.39,0Zm0-13a2.2,2.2,0,1,1,4.39,0,2.2,2.2,0,1,1-4.39,0Z" style="fill:#666"/><path d="M743,1372.86l-9.65,0,0,9,10.76,0v2.69l-14,0,.07-24.83,13.41,0v2.69l-10.21,0,0,7.85,9.65,0Z" style="fill:#666"/><path d="M748.32,1360a32.78,32.78,0,0,1,6.16-.5c3.42,0,5.63.64,7.18,2a6.19,6.19,0,0,1,1.93,4.72,6.49,6.49,0,0,1-4.69,6.32v.12c1.91.66,3.05,2.44,3.63,5a38.85,38.85,0,0,0,1.9,6.82h-3.32a32.34,32.34,0,0,1-1.64-5.94c-.73-3.43-2.05-4.72-5-4.84h-3l0,10.76h-3.21Zm3.17,11.32h3.28c3.43,0,5.61-1.86,5.62-4.7,0-3.21-2.31-4.61-5.7-4.66a13.15,13.15,0,0,0-3.17.29Z" style="fill:#666"/><path d="M768.15,1360.07a33.67,33.67,0,0,1,6.15-.49c3.43,0,5.64.64,7.18,2a6.18,6.18,0,0,1,1.94,4.73,6.53,6.53,0,0,1-4.7,6.32v.11c1.92.67,3,2.44,3.64,5a39.52,39.52,0,0,0,1.89,6.82h-3.31a32,32,0,0,1-1.65-5.94c-.72-3.43-2-4.72-5-4.84h-3l0,10.76h-3.2Zm3.17,11.33h3.28c3.43,0,5.61-1.87,5.61-4.7,0-3.21-2.31-4.62-5.7-4.66a13.38,13.38,0,0,0-3.17.28Z" style="fill:#666"/><path d="M809.27,1372c0,8.55-5.23,13.07-11.57,13-6.56,0-11.15-5.12-11.13-12.64,0-7.88,4.94-13,11.57-13S809.29,1364.65,809.27,1372Zm-19.27.35c0,5.31,2.84,10.07,7.89,10.08s8-4.66,8-10.29c0-4.94-2.55-10.11-7.89-10.12S790,1366.92,790,1372.37Z" style="fill:#666"/><path d="M813.47,1360.2a34.51,34.51,0,0,1,6.15-.5c3.43,0,5.64.65,7.18,2a6.17,6.17,0,0,1,1.94,4.72,6.52,6.52,0,0,1-4.69,6.33v.11c1.91.67,3.05,2.44,3.63,5a38.57,38.57,0,0,0,1.9,6.82h-3.32a32.4,32.4,0,0,1-1.64-5.93c-.73-3.43-2-4.73-5-4.85h-3l0,10.76H813.4Zm3.17,11.32h3.28c3.43,0,5.61-1.86,5.62-4.7,0-3.2-2.31-4.61-5.7-4.66a13.15,13.15,0,0,0-3.17.29Z" style="fill:#666"/><path d="M832.35,1382.88a2.19,2.19,0,1,1,4.38,0,2.19,2.19,0,1,1-4.38,0Zm0-13a2.2,2.2,0,1,1,2.17,2.3A2.18,2.18,0,0,1,832.38,1369.87Z" style="fill:#666"/><path d="M851.93,1362.71l-7.55,0V1360l18.38,0v2.73l-7.59,0-.07,22.11h-3.24Z" style="fill:#666"/><path d="M885.73,1372.24c0,8.54-5.23,13.06-11.57,13-6.56,0-11.15-5.11-11.13-12.63,0-7.89,4.94-13,11.57-13S885.76,1364.87,885.73,1372.24Zm-19.27.35c0,5.3,2.85,10.06,7.9,10.08s8-4.66,8-10.3c0-4.93-2.55-10.1-7.89-10.12S866.48,1367.13,866.46,1372.59Z" style="fill:#666"/><path d="M889.93,1360.09h3.21l0,12h.11c.67-1,1.34-1.84,2-2.65l7.61-9.3h4l-9,10.52L907.4,1385h-3.79l-8.15-12.22-2.37,2.72,0,9.47h-3.21Z" style="fill:#666"/><path d="M922.73,1373.37l-9.66,0,0,9,10.76,0V1385l-14,0,.07-24.84,13.42,0v2.69l-10.21,0,0,7.85,9.65,0Z" style="fill:#666"/><path d="M928,1385l.07-24.84h3.5l7.93,12.59a70.57,70.57,0,0,1,4.43,8.09l.08,0c-.29-3.32-.35-6.34-.34-10.21l0-10.39h3l-.07,24.83h-3.24l-7.85-12.62a76.46,76.46,0,0,1-4.62-8.31l-.11,0c.17,3.13.24,6.12.23,10.25l0,10.61Z" style="fill:#666"/><path d="M972.92,1373.51l-9.66,0,0,9,10.76,0v2.69l-14,0,.07-24.84,13.42,0V1363l-10.21,0,0,7.85,9.65,0Z" style="fill:#666"/><path d="M991.75,1385.21l-3.15-5.5c-1.29-2.1-2.09-3.47-2.86-4.91h-.08c-.7,1.44-1.41,2.76-2.7,4.93l-3,5.45h-3.69l7.63-12.55-7.26-12.29h3.72l3.26,5.83c.92,1.63,1.62,2.88,2.27,4.21H986c.7-1.47,1.33-2.61,2.26-4.19l3.4-5.82h3.69l-7.59,12.07,7.7,12.77Z" style="fill:#666"/><path d="M999.26,1360.69a37.35,37.35,0,0,1,6.16-.46c3.17,0,5.49.75,7,2.08a6.69,6.69,0,0,1,2.16,5.2,7.3,7.3,0,0,1-1.94,5.3c-1.7,1.81-4.46,2.72-7.59,2.71a10.67,10.67,0,0,1-2.58-.23l0,10h-3.21Zm3.17,12a10.47,10.47,0,0,0,2.66.27c3.87,0,6.23-1.86,6.24-5.29s-2.31-4.87-5.85-4.88a13.39,13.39,0,0,0-3,.25Z" style="fill:#666"/><path d="M1022.07,1360.46l-.07,24.84h-3.2l.07-24.84Z" style="fill:#666"/><path d="M1027.67,1360.81a32.85,32.85,0,0,1,6.16-.5c3.42,0,5.63.64,7.18,2a6.18,6.18,0,0,1,1.94,4.72,6.51,6.51,0,0,1-4.7,6.32v.11c1.91.67,3,2.44,3.63,5a39.79,39.79,0,0,0,1.9,6.82h-3.32a32.34,32.34,0,0,1-1.64-5.94c-.73-3.43-2-4.72-5-4.84h-3l0,10.76h-3.21Zm3.18,11.32h3.28c3.42,0,5.6-1.87,5.61-4.7,0-3.21-2.31-4.62-5.7-4.66a13.31,13.31,0,0,0-3.17.28Z" style="fill:#666"/><path d="M1060.32,1373.76l-9.65,0,0,9,10.76,0v2.69l-14,0,.07-24.84,13.41,0v2.69l-10.2,0,0,7.85,9.66,0Z" style="fill:#666"/><path d="M1065.63,1360.91a45.42,45.42,0,0,1,6.82-.49c4.6,0,7.88,1.09,10,3.12s3.48,4.91,3.47,8.93-1.27,7.36-3.6,9.64-6.16,3.56-11,3.55a54.77,54.77,0,0,1-5.82-.31Zm3.14,22a19.84,19.84,0,0,0,3.24.19c6.86,0,10.59-3.8,10.61-10.51.05-5.86-3.25-9.59-10-9.61a18.64,18.64,0,0,0-3.76.32Z" style="fill:#666"/><line x1="295" y1="1535.6" x2="1175.13" y2="1535.6" style="fill:none;stroke:#666;stroke-miterlimit:10;stroke-width:8px"/><polygon points="1159.27 1558.84 1246 1535.6 1159.27 1512.36 1159.27 1558.84" style="fill:#666"/><path d="M330.09,1493.27a32.93,32.93,0,0,1,6.16-.5c3.43,0,5.64.64,7.18,2a6.19,6.19,0,0,1,1.94,4.72,6.51,6.51,0,0,1-4.7,6.32v.11c1.92.67,3.05,2.44,3.64,5a40.1,40.1,0,0,0,1.89,6.82h-3.31a32,32,0,0,1-1.65-5.94c-.72-3.43-2.05-4.72-5-4.84h-3l0,10.76H330Zm3.18,11.32h3.28c3.43,0,5.6-1.86,5.61-4.7,0-3.21-2.31-4.61-5.7-4.66a13.38,13.38,0,0,0-3.17.28Z" style="fill:#666"/><path d="M362.74,1506.22l-9.65,0,0,9,10.76,0v2.69l-14,0,.07-24.84,13.41,0v2.69l-10.21,0,0,7.85,9.65,0Z" style="fill:#666"/><path d="M388.46,1521.59c-3.35-.9-6.63-1.9-9.5-2.91a4.9,4.9,0,0,0-1.51-.37c-5.9-.24-10.93-4.6-10.91-12.6s4.9-13.06,11.61-13,11.11,5.26,11.09,12.59c0,6.38-3,10.46-7.11,11.89v.14c2.47.64,5.16,1.23,7.26,1.61Zm-2.61-16.19c0-5-2.55-10.1-7.82-10.12s-8.08,5-8.06,10.37,2.84,10,7.86,10S385.83,1511.08,385.85,1505.4Z" style="fill:#666"/><path d="M396.64,1493.12l0,14.71c0,5.56,2.45,7.93,5.77,7.94,3.68,0,6.05-2.42,6.06-7.91l0-14.7h3.25l0,14.48c0,7.63-4.05,10.75-9.43,10.73-5.09,0-8.91-2.93-8.89-10.64l0-14.63Z" style="fill:#666"/><path d="M430.1,1506.41l-9.65,0,0,9,10.76,0v2.69l-14,0,.07-24.84,13.41,0v2.69l-10.21,0,0,7.85,9.65,0Z" style="fill:#666"/><path d="M434.91,1514.16a11.36,11.36,0,0,0,5.74,1.64c3.28,0,5.2-1.72,5.21-4.22,0-2.32-1.32-3.65-4.67-4.95-4.05-1.45-6.55-3.56-6.54-7.06,0-3.87,3.23-6.74,8.06-6.72a11.28,11.28,0,0,1,5.48,1.23l-.89,2.61a10,10,0,0,0-4.71-1.19c-3.39,0-4.69,2-4.69,3.71,0,2.32,1.5,3.47,4.92,4.8,4.2,1.64,6.33,3.67,6.32,7.32,0,3.83-2.86,7.14-8.72,7.12a12.73,12.73,0,0,1-6.33-1.6Z" style="fill:#666"/><path d="M458.29,1496l-7.56,0v-2.72l18.39,0v2.73l-7.59,0-.06,22.11h-3.25Z" style="fill:#666"/><path d="M479.63,1518.2l.07-24.84h3.5l7.93,12.59a69.66,69.66,0,0,1,4.43,8.08l.08,0c-.29-3.32-.35-6.34-.34-10.21l0-10.39h3l-.07,24.84H495l-7.85-12.63a77.3,77.3,0,0,1-4.62-8.3l-.12,0c.18,3.13.25,6.11.23,10.24l0,10.61Z" style="fill:#666"/><path d="M516.77,1506.66l-9.65,0,0,8.95,10.76,0v2.69l-14,0,.07-24.83,13.41,0v2.69l-10.2,0,0,7.85,9.66,0Z" style="fill:#666"/><path d="M526.39,1518.33l-6.23-24.86h3.39l2.91,12.58c.73,3.09,1.39,6.19,1.82,8.59h.08c.41-2.47,1.19-5.42,2-8.62l3.35-12.52h3.35l3,12.61c.69,2.95,1.35,5.9,1.71,8.52h.07c.52-2.73,1.23-5.49,2-8.58l3.32-12.52h3.28l-7.11,24.82H540l-3.1-12.95a77.16,77.16,0,0,1-1.6-8.11h-.07a77.55,77.55,0,0,1-1.94,8.1l-3.57,12.93Z" style="fill:#666"/><path d="M565.36,1510.62l-2.6,7.81h-3.31l8.5-24.81h3.87l8.41,24.86H576.8l-2.63-7.82Zm8.15-2.48L571.1,1501c-.55-1.63-.91-3.1-1.27-4.54h-.08c-.37,1.47-.78,3-1.26,4.49l-2.46,7.18Z" style="fill:#666"/><path d="M600.68,1517.73a16,16,0,0,1-6.56,1.16c-7,0-12.26-4.46-12.23-12.6,0-7.78,5.3-13,13-13a13.45,13.45,0,0,1,5.9,1.12L600,1497a11.6,11.6,0,0,0-5-1c-5.83,0-9.71,3.69-9.72,10.21,0,6.09,3.47,10,9.51,10a13,13,0,0,0,5.24-1Z" style="fill:#666"/><path d="M621.28,1517.78a15.82,15.82,0,0,1-6.56,1.16c-7,0-12.26-4.45-12.24-12.6,0-7.77,5.31-13,13-13a13.06,13.06,0,0,1,5.89,1.12l-.78,2.61a11.61,11.61,0,0,0-5-1c-5.82,0-9.7,3.69-9.72,10.21,0,6.08,3.48,10,9.52,10a13,13,0,0,0,5.24-1Z" style="fill:#666"/><path d="M638.19,1507l-9.66,0,0,9,10.76,0v2.69l-14,0,.07-24.84,13.41,0v2.69l-10.21,0,0,7.85,9.66,0Z" style="fill:#666"/><path d="M643,1514.75a11.43,11.43,0,0,0,5.75,1.64c3.28,0,5.2-1.72,5.21-4.23,0-2.32-1.32-3.65-4.67-5-4-1.45-6.55-3.55-6.54-7,0-3.87,3.23-6.74,8-6.72a11.18,11.18,0,0,1,5.49,1.23l-.89,2.61a9.9,9.9,0,0,0-4.72-1.19c-3.39,0-4.68,2-4.69,3.71,0,2.32,1.51,3.46,4.93,4.8,4.19,1.63,6.33,3.67,6.32,7.32,0,3.83-2.86,7.14-8.72,7.12a12.81,12.81,0,0,1-6.33-1.6Z" style="fill:#666"/><path d="M661.16,1514.8a11.36,11.36,0,0,0,5.74,1.64c3.28,0,5.2-1.72,5.21-4.22,0-2.33-1.31-3.66-4.66-5-4.05-1.44-6.55-3.55-6.54-7,0-3.87,3.22-6.74,8.05-6.72a11.24,11.24,0,0,1,5.49,1.23l-.9,2.61a9.93,9.93,0,0,0-4.71-1.19c-3.39,0-4.68,2-4.69,3.71,0,2.32,1.5,3.47,4.92,4.8,4.2,1.64,6.33,3.67,6.32,7.32,0,3.83-2.85,7.14-8.71,7.12a12.88,12.88,0,0,1-6.34-1.6Z" style="fill:#666"/><path d="M690.84,1496.68l-7.55,0v-2.73l18.39,0v2.73l-7.59,0L694,1518.8h-3.24Z" style="fill:#666"/><path d="M724.64,1506.21c0,8.55-5.23,13.07-11.57,13-6.56,0-11.15-5.12-11.13-12.64,0-7.88,4.94-13,11.57-13S724.66,1498.84,724.64,1506.21Zm-19.27.35c0,5.31,2.84,10.07,7.89,10.08s8-4.65,8-10.29c0-4.94-2.55-10.11-7.89-10.12S705.38,1501.11,705.37,1506.56Z" style="fill:#666"/><path d="M728.84,1494.06H732l0,12h.11c.67-1,1.33-1.84,2-2.65l7.62-9.3h4l-9,10.51,9.65,14.33h-3.8l-8.14-12.22-2.37,2.72,0,9.47h-3.2Z" style="fill:#666"/><path d="M761.63,1507.35l-9.65,0,0,9,10.76,0V1519l-14,0,.07-24.83,13.41,0v2.68l-10.21,0,0,7.85,9.65,0Z" style="fill:#666"/><path d="M766.87,1519l.07-24.83h3.5l7.93,12.59a69.66,69.66,0,0,1,4.43,8.08l.08,0c-.29-3.31-.36-6.34-.34-10.21l0-10.39h3l-.07,24.84h-3.25l-7.85-12.63a79.89,79.89,0,0,1-4.62-8.3l-.11,0c.18,3.13.24,6.11.23,10.24l0,10.61Z" style="fill:#666"/><path d="M801.66,1519.1l-6.24-24.85h3.39l2.92,12.57c.73,3.1,1.38,6.2,1.82,8.59h.07c.41-2.46,1.19-5.41,2-8.61l3.35-12.52h3.36l3,12.61c.69,2.95,1.35,5.9,1.71,8.51h.07c.53-2.73,1.24-5.49,2-8.59l3.31-12.51h3.28l-7.11,24.82h-3.35l-3.1-12.94a74.88,74.88,0,0,1-1.59-8.11h-.08a78.15,78.15,0,0,1-1.94,8.1L805,1519.11Z" style="fill:#666"/><path d="M832.05,1494.35l-.07,24.84h-3.2l.07-24.84Z" style="fill:#666"/><path d="M842.36,1497.11l-7.55,0v-2.73l18.39.05v2.73l-7.59,0-.07,22.11H842.3Z" style="fill:#666"/><path d="M859.17,1494.43l0,10.39,12,0,0-10.39h3.24l-.07,24.84h-3.24l0-11.64-12,0,0,11.65h-3.2l.07-24.84Z" style="fill:#666"/><path d="M887.8,1494.84a33.8,33.8,0,0,1,6.16-.5c3.43,0,5.64.65,7.18,2.05a6.21,6.21,0,0,1,1.94,4.72,6.53,6.53,0,0,1-4.7,6.33v.11c1.92.67,3,2.44,3.64,5a39.81,39.81,0,0,0,1.89,6.82H900.6a32.1,32.1,0,0,1-1.65-5.93c-.72-3.43-2.05-4.73-5-4.85h-3l0,10.77h-3.2Zm3.18,11.32h3.28c3.42,0,5.6-1.86,5.61-4.7,0-3.21-2.31-4.61-5.7-4.66a13.21,13.21,0,0,0-3.17.29Z" style="fill:#666"/><path d="M920.45,1507.79l-9.65,0,0,9,10.76,0v2.69l-14,0,.07-24.83,13.41,0v2.69l-10.21,0,0,7.85,9.65,0Z" style="fill:#666"/><path d="M925.76,1494.62l13.38,0v2.69l-10.17,0,0,8.25,9.4,0v2.65l-9.39,0,0,11.24h-3.21Z" style="fill:#666"/><path d="M943.71,1495a32.74,32.74,0,0,1,6.15-.5c3.43,0,5.64.64,7.18,2a6.16,6.16,0,0,1,1.94,4.72,6.51,6.51,0,0,1-4.7,6.32v.12c1.92.66,3.05,2.44,3.64,5a40.1,40.1,0,0,0,1.89,6.82H956.5a32,32,0,0,1-1.65-5.94c-.72-3.43-2.05-4.72-5-4.84h-3l0,10.76h-3.2Zm3.17,11.32h3.28c3.42,0,5.6-1.86,5.61-4.7,0-3.21-2.31-4.61-5.7-4.66a13.21,13.21,0,0,0-3.17.29Z" style="fill:#666"/><path d="M976.35,1508l-9.65,0,0,9,10.76,0v2.69l-14,0,.07-24.84,13.41,0v2.69l-10.21,0,0,7.85,9.65,0Z" style="fill:#666"/><path d="M981.16,1515.7a11.36,11.36,0,0,0,5.74,1.64c3.28,0,5.2-1.72,5.21-4.22,0-2.32-1.32-3.65-4.67-4.95-4.05-1.45-6.55-3.56-6.54-7.06,0-3.87,3.23-6.73,8.06-6.72a11.28,11.28,0,0,1,5.48,1.23l-.89,2.62a9.83,9.83,0,0,0-4.71-1.2c-3.39,0-4.69,2-4.69,3.71,0,2.32,1.5,3.47,4.92,4.81,4.2,1.63,6.33,3.66,6.32,7.31,0,3.83-2.86,7.14-8.72,7.12a12.73,12.73,0,0,1-6.33-1.6Z" style="fill:#666"/><path d="M1003,1494.83l0,10.4,12,0,0-10.39h3.24l-.07,24.83H1015l0-11.65-12,0,0,11.64h-3.2l.07-24.83Z" style="fill:#666"/><path d="M1034.86,1497.65l-7.55,0v-2.73l18.39.06v2.72l-7.59,0-.07,22.11h-3.24Z" style="fill:#666"/><path d="M1068.67,1507.18c0,8.55-5.24,13.07-11.58,13-6.56,0-11.15-5.12-11.13-12.63,0-7.89,4.94-13,11.57-13C1064.31,1494.6,1068.69,1499.81,1068.67,1507.18Zm-19.28.35c0,5.31,2.85,10.07,7.9,10.08s8-4.65,8-10.29c0-4.94-2.55-10.11-7.89-10.12S1049.41,1502.08,1049.39,1507.53Z" style="fill:#666"/><path d="M1072.86,1495h3.21l0,12h.11c.67-1,1.34-1.84,2-2.65l7.61-9.3h4l-9,10.51,9.65,14.33h-3.79l-8.15-12.22-2.37,2.72,0,9.47h-3.21Z" style="fill:#666"/><path d="M1105.66,1508.32l-9.66,0,0,9,10.76,0V1520l-14,0,.07-24.83,13.42,0v2.69l-10.21,0,0,7.85,9.66,0Z" style="fill:#666"/><path d="M1110.89,1520l.07-24.84h3.5l7.93,12.59a69.66,69.66,0,0,1,4.43,8.08l.08,0c-.29-3.31-.35-6.34-.34-10.21l0-10.39h3l-.07,24.84h-3.24l-7.85-12.63a76.35,76.35,0,0,1-4.62-8.3l-.11,0c.17,3.13.24,6.11.23,10.24l0,10.61Z" style="fill:#666"/><line x1="365.87" y1="1669.4" x2="1246" y2="1669.4" style="fill:none;stroke:#666;stroke-miterlimit:10;stroke-width:8px"/><polygon points="381.73 1692.64 295 1669.4 381.73 1646.16 381.73 1692.64" style="fill:#666"/><path d="M633.09,1622.07a32.93,32.93,0,0,1,6.16-.5c3.43,0,5.64.64,7.18,2a6.19,6.19,0,0,1,1.94,4.72,6.51,6.51,0,0,1-4.7,6.32v.11c1.92.67,3.05,2.44,3.64,5a40.1,40.1,0,0,0,1.89,6.82h-3.31a32,32,0,0,1-1.65-5.94c-.72-3.43-2-4.72-5-4.84h-3l0,10.76H633Zm3.18,11.32h3.28c3.43,0,5.6-1.86,5.61-4.7,0-3.21-2.31-4.61-5.7-4.66a12.7,12.7,0,0,0-3.17.29Z" style="fill:#666"/><path d="M665.74,1635l-9.65,0,0,9,10.76,0v2.69l-14,0,.07-24.84,13.41,0v2.69l-10.21,0,0,7.85,9.65,0Z" style="fill:#666"/><path d="M670.55,1642.77a11.36,11.36,0,0,0,5.74,1.64c3.28,0,5.2-1.72,5.21-4.22,0-2.32-1.32-3.65-4.67-5-4.05-1.45-6.55-3.56-6.54-7.06,0-3.87,3.23-6.73,8.06-6.72a11.28,11.28,0,0,1,5.48,1.23l-.89,2.61a10,10,0,0,0-4.71-1.19c-3.39,0-4.69,2-4.69,3.71,0,2.32,1.5,3.47,4.92,4.8,4.2,1.64,6.33,3.67,6.32,7.32,0,3.83-2.86,7.14-8.72,7.12a12.73,12.73,0,0,1-6.33-1.6Z" style="fill:#666"/><path d="M689.22,1622.19a37.13,37.13,0,0,1,6.15-.46c3.17,0,5.49.75,7,2.08a6.66,6.66,0,0,1,2.16,5.2,7.34,7.34,0,0,1-1.93,5.3c-1.7,1.81-4.47,2.72-7.6,2.71a10.71,10.71,0,0,1-2.58-.23l0,10h-3.2Zm3.17,12a10.38,10.38,0,0,0,2.65.27c3.87,0,6.23-1.86,6.24-5.29s-2.3-4.87-5.84-4.88a13.56,13.56,0,0,0-3,.25Z" style="fill:#666"/><path d="M730,1634.17c0,8.55-5.23,13.07-11.57,13-6.56,0-11.15-5.12-11.13-12.64,0-7.88,4.94-13,11.57-13S730,1626.8,730,1634.17Zm-19.27.35c0,5.31,2.84,10.07,7.89,10.08s8-4.65,8-10.29c0-4.94-2.55-10.11-7.89-10.12S710.75,1629.07,710.74,1634.52Z" style="fill:#666"/><path d="M734.14,1646.86l.07-24.84h3.5l7.92,12.59a70,70,0,0,1,4.44,8.08l.07,0c-.28-3.32-.35-6.34-.34-10.21l0-10.39h3l-.07,24.84h-3.25l-7.85-12.62a80,80,0,0,1-4.62-8.31l-.11,0c.18,3.13.24,6.12.23,10.24l0,10.62Z" style="fill:#666"/><path d="M758,1643a11.43,11.43,0,0,0,5.75,1.64c3.28,0,5.2-1.72,5.21-4.23,0-2.32-1.32-3.65-4.67-5-4-1.45-6.55-3.55-6.54-7,0-3.87,3.23-6.74,8-6.72a11.18,11.18,0,0,1,5.49,1.23l-.89,2.61a9.89,9.89,0,0,0-4.71-1.19c-3.39,0-4.69,2-4.7,3.71,0,2.32,1.51,3.47,4.93,4.8,4.2,1.63,6.33,3.67,6.32,7.32,0,3.83-2.86,7.14-8.72,7.12a12.84,12.84,0,0,1-6.33-1.6Z" style="fill:#666"/><path d="M789.45,1635.37l-9.66,0,0,9,10.76,0V1647l-14,0,.07-24.84,13.42,0v2.69l-10.21,0,0,7.85,9.65,0Z" style="fill:#666"/><path d="M793.8,1645.15a2.2,2.2,0,1,1,4.39,0,2.2,2.2,0,1,1-4.39,0Zm0-13a2.2,2.2,0,1,1,4.39,0,2.2,2.2,0,1,1-4.39,0Z" style="fill:#666"/><path d="M810.12,1647.07l.07-24.83h3.5l7.93,12.58a70.57,70.57,0,0,1,4.43,8.09l.08,0c-.29-3.32-.35-6.34-.34-10.21l0-10.39h3l-.07,24.83h-3.24l-7.86-12.63a80.93,80.93,0,0,1-4.62-8.3l-.11,0c.18,3.14.24,6.12.23,10.25l0,10.61Z" style="fill:#666"/><path d="M847.26,1635.53l-9.65,0,0,9,10.76,0v2.69l-14,0,.07-24.84,13.41,0V1625l-10.2,0,0,7.85,9.66,0Z" style="fill:#666"/><path d="M856.88,1647.21l-6.23-24.86H854l2.91,12.57c.73,3.1,1.39,6.2,1.82,8.6h.08c.41-2.47,1.19-5.42,2-8.62l3.35-12.52h3.35l3,12.61c.69,3,1.34,5.9,1.71,8.52h.07c.52-2.73,1.23-5.49,2-8.58l3.32-12.52H881l-7.11,24.81h-3.35l-3.1-12.94a77.16,77.16,0,0,1-1.6-8.11h-.07a77.55,77.55,0,0,1-1.94,8.1l-3.57,12.92Z" style="fill:#666"/><path d="M895.85,1639.5l-2.6,7.81h-3.31l8.5-24.82,3.87,0,8.41,24.86h-3.43l-2.63-7.82ZM904,1637l-2.41-7.16c-.55-1.62-.91-3.09-1.27-4.53h-.08c-.37,1.47-.78,3-1.26,4.49l-2.46,7.18Z" style="fill:#666"/><path d="M931.17,1646.6a15.82,15.82,0,0,1-6.56,1.16c-7,0-12.26-4.45-12.23-12.6,0-7.77,5.3-13,13-13a13.15,13.15,0,0,1,5.9,1.12l-.79,2.61a11.6,11.6,0,0,0-5-1c-5.83,0-9.71,3.69-9.72,10.21,0,6.08,3.47,10,9.51,10a13,13,0,0,0,5.24-1Z" style="fill:#666"/><path d="M951.77,1646.66a15.82,15.82,0,0,1-6.56,1.16c-7,0-12.26-4.45-12.24-12.6,0-7.77,5.31-13,13-13a13.16,13.16,0,0,1,5.89,1.13l-.78,2.61a11.75,11.75,0,0,0-5-1c-5.82,0-9.7,3.7-9.72,10.22,0,6.08,3.48,10,9.52,10a12.87,12.87,0,0,0,5.24-1Z" style="fill:#666"/><path d="M968.68,1635.88l-9.66,0,0,9,10.76,0v2.69l-14,0,.07-24.83,13.41,0v2.7l-10.21,0,0,7.85,9.66,0Z" style="fill:#666"/><path d="M973.48,1643.63a11.43,11.43,0,0,0,5.75,1.64c3.28,0,5.2-1.72,5.2-4.23,0-2.32-1.31-3.65-4.66-5-4-1.45-6.55-3.55-6.54-7.06,0-3.86,3.23-6.73,8-6.72a11.44,11.44,0,0,1,5.49,1.23l-.89,2.62a9.78,9.78,0,0,0-4.72-1.19c-3.39,0-4.68,2-4.69,3.7,0,2.33,1.5,3.47,4.93,4.81,4.19,1.63,6.33,3.67,6.31,7.31,0,3.84-2.85,7.14-8.71,7.13a12.92,12.92,0,0,1-6.33-1.6Z" style="fill:#666"/><path d="M991.65,1643.68a11.36,11.36,0,0,0,5.74,1.64c3.28,0,5.2-1.72,5.21-4.23,0-2.32-1.31-3.65-4.66-4.95-4.05-1.45-6.55-3.55-6.54-7.05,0-3.87,3.22-6.74,8.05-6.73a11.34,11.34,0,0,1,5.49,1.24l-.9,2.61a9.85,9.85,0,0,0-4.71-1.19c-3.39,0-4.69,2-4.69,3.71,0,2.32,1.5,3.46,4.92,4.8,4.2,1.63,6.33,3.67,6.32,7.31,0,3.84-2.85,7.15-8.71,7.13a13,13,0,0,1-6.34-1.6Z" style="fill:#666"/><line x1="296" y1="1798.2" x2="1176.13" y2="1798.2" style="fill:none;stroke:#666;stroke-miterlimit:10;stroke-width:8px"/><polygon points="1160.27 1821.44 1247 1798.2 1160.27 1774.96 1160.27 1821.44" style="fill:#666"/><path d="M427.09,1755.87a32.93,32.93,0,0,1,6.16-.5c3.43,0,5.64.64,7.18,2.05a6.19,6.19,0,0,1,1.94,4.72,6.51,6.51,0,0,1-4.7,6.32v.11c1.92.67,3.05,2.44,3.64,5a40.1,40.1,0,0,0,1.89,6.82h-3.31a32,32,0,0,1-1.65-5.94c-.72-3.43-2.05-4.72-5-4.84h-3l0,10.76H427Zm3.18,11.32h3.28c3.43,0,5.6-1.87,5.61-4.7,0-3.21-2.31-4.61-5.7-4.66a13.38,13.38,0,0,0-3.17.28Z" style="fill:#666"/><path d="M459.74,1768.82l-9.65,0,0,9,10.76,0v2.69l-14,0,.07-24.84,13.41,0v2.69l-10.21,0,0,7.85,9.65,0Z" style="fill:#666"/><path d="M470.35,1758.38l-7.56,0v-2.72l18.39,0v2.73l-7.59,0-.06,22.11h-3.24Z" style="fill:#666"/><path d="M484,1756a32.85,32.85,0,0,1,6.16-.5c3.42,0,5.63.64,7.18,2a6.19,6.19,0,0,1,1.94,4.72,6.51,6.51,0,0,1-4.7,6.32v.11c1.91.67,3.05,2.44,3.63,5a39.79,39.79,0,0,0,1.9,6.82h-3.32a32.34,32.34,0,0,1-1.64-5.94c-.72-3.43-2.05-4.72-5-4.84h-3l0,10.76h-3.21Zm3.18,11.32h3.28c3.42,0,5.6-1.86,5.61-4.7,0-3.21-2.31-4.61-5.7-4.66a13.15,13.15,0,0,0-3.17.29Z" style="fill:#666"/><path d="M508.83,1780.6l0-10.54-7.81-14.31h3.65l3.48,6.87c.95,1.88,1.69,3.39,2.46,5.13h.07c.7-1.62,1.56-3.24,2.52-5.12l3.59-6.84h3.65L512.1,1770l0,10.57Z" style="fill:#666"/><path d="M551.53,1784.37c-3.35-.89-6.63-1.9-9.5-2.9a4.9,4.9,0,0,0-1.51-.37c-5.9-.24-10.93-4.6-10.91-12.6s4.9-13.07,11.61-13,11.11,5.27,11.09,12.6c0,6.37-3,10.46-7.11,11.88v.15c2.47.63,5.16,1.23,7.26,1.6Zm-2.61-16.18c0-5-2.55-10.11-7.82-10.12-5.42,0-8.08,5-8.06,10.37s2.84,10,7.86,10S548.9,1773.86,548.92,1768.19Z" style="fill:#666"/><path d="M559.71,1755.91l0,14.7c0,5.57,2.45,7.93,5.77,7.94,3.68,0,6-2.41,6.06-7.9l0-14.71h3.25l0,14.48c0,7.63-4,10.75-9.43,10.74-5.09,0-8.91-2.94-8.89-10.64l0-14.63Z" style="fill:#666"/><path d="M593.17,1769.2l-9.65,0,0,8.95,10.76,0v2.69l-14,0,.07-24.84,13.41,0v2.69l-10.21,0,0,7.85,9.65,0Z" style="fill:#666"/><path d="M598.48,1756.35a33.6,33.6,0,0,1,6.15-.5c3.43,0,5.64.65,7.18,2.05a6.17,6.17,0,0,1,1.94,4.72,6.53,6.53,0,0,1-4.69,6.33v.11c1.91.67,3.05,2.44,3.63,5a38.57,38.57,0,0,0,1.9,6.82h-3.32a32.4,32.4,0,0,1-1.64-5.93c-.73-3.43-2-4.73-5-4.85h-3l0,10.76h-3.21Zm3.17,11.32h3.28c3.43,0,5.61-1.86,5.62-4.7,0-3.2-2.31-4.61-5.7-4.66a13.09,13.09,0,0,0-3.17.29Z" style="fill:#666"/><path d="M623.36,1780.93l0-10.54-7.81-14.32h3.65l3.48,6.86c.95,1.88,1.68,3.4,2.45,5.13h.08c.7-1.62,1.55-3.24,2.52-5.11l3.59-6.85H635l-8.37,14.24,0,10.58Z" style="fill:#666"/><path d="M656.12,1781l-6.24-24.85h3.39l2.92,12.58c.73,3.1,1.38,6.19,1.81,8.59h.08c.41-2.47,1.19-5.41,2-8.62l3.35-12.52h3.35l3,12.61c.69,3,1.35,5.9,1.71,8.52h.07c.53-2.72,1.23-5.49,2-8.58l3.31-12.52h3.28l-7.11,24.82h-3.35l-3.1-13a74.42,74.42,0,0,1-1.59-8.11H665a77.55,77.55,0,0,1-1.94,8.1L659.47,1781Z" style="fill:#666"/><path d="M686.51,1756.27l-.07,24.83h-3.2l.07-24.84Z" style="fill:#666"/><path d="M696.82,1759l-7.55,0v-2.72l18.38,0v2.72l-7.59,0-.07,22.11h-3.24Z" style="fill:#666"/><path d="M713.63,1756.34l0,10.4,12,0,0-10.39h3.24l-.07,24.83h-3.24l0-11.64-12,0,0,11.64h-3.2l.07-24.84Z" style="fill:#666"/><path d="M742.19,1781.26l.07-24.84,3.51,0,7.92,12.58a72.33,72.33,0,0,1,4.44,8.09l.07,0c-.29-3.32-.35-6.34-.34-10.21l0-10.39h3l-.07,24.83H757.6l-7.85-12.63a77.3,77.3,0,0,1-4.62-8.3l-.11,0c.17,3.14.24,6.12.23,10.25l0,10.61Z" style="fill:#666"/><path d="M779.33,1769.72l-9.65,0,0,9,10.76,0v2.69l-14,0,.07-24.84,13.41,0v2.69l-10.21,0,0,7.85,9.65,0Z" style="fill:#666"/><path d="M789,1781.39l-6.24-24.85h3.39l2.92,12.57c.73,3.1,1.38,6.2,1.82,8.59h.07c.41-2.46,1.19-5.41,2.05-8.61l3.35-12.52h3.36l3,12.61c.69,3,1.35,5.9,1.71,8.52h.07c.53-2.73,1.23-5.49,2-8.59l3.31-12.51h3.28l-7.11,24.82h-3.35l-3.1-12.94a74.88,74.88,0,0,1-1.59-8.11h-.08a77.55,77.55,0,0,1-1.94,8.1l-3.57,12.92Z" style="fill:#666"/><path d="M841.25,1780.73a15.84,15.84,0,0,1-6.57,1.16c-7,0-12.25-4.46-12.23-12.6,0-7.77,5.31-13,13-13a13.24,13.24,0,0,1,5.89,1.13l-.78,2.61a11.82,11.82,0,0,0-5-1c-5.82,0-9.7,3.7-9.72,10.22,0,6.08,3.47,10,9.52,10a12.79,12.79,0,0,0,5.23-1Z" style="fill:#666"/><path d="M845.33,1757.05a32.74,32.74,0,0,1,6.15-.5c3.43,0,5.64.64,7.19,2a6.19,6.19,0,0,1,1.93,4.72,6.49,6.49,0,0,1-4.69,6.32v.11c1.91.67,3.05,2.44,3.63,5a38.85,38.85,0,0,0,1.9,6.82h-3.32a32.34,32.34,0,0,1-1.64-5.94c-.73-3.43-2.05-4.72-5-4.84h-3l0,10.76h-3.21Zm3.17,11.32h3.28c3.43,0,5.61-1.86,5.62-4.7,0-3.21-2.31-4.61-5.7-4.66a13.25,13.25,0,0,0-3.17.28Z" style="fill:#666"/><path d="M878,1770l-9.66,0,0,9,10.76,0v2.69l-14,0,.07-24.84,13.41,0v2.69l-10.21,0,0,7.85,9.66,0Z" style="fill:#666"/><path d="M883.28,1757.15a47,47,0,0,1,6.82-.49c4.61,0,7.89,1.09,10,3.12s3.49,4.91,3.48,8.93-1.27,7.37-3.6,9.64-6.16,3.56-11,3.55a55.13,55.13,0,0,1-5.83-.31Zm3.15,22a19.84,19.84,0,0,0,3.24.19c6.85,0,10.59-3.8,10.61-10.51.05-5.86-3.26-9.59-10-9.61a18.71,18.71,0,0,0-3.76.32Z" style="fill:#666"/><path d="M920.65,1770.12l-9.65,0,0,9,10.76,0v2.69l-14,0,.07-24.84,13.41,0v2.69l-10.2,0,0,7.85,9.66,0Z" style="fill:#666"/><path d="M925.89,1781.78l.07-24.84h3.5l7.92,12.59a73.15,73.15,0,0,1,4.44,8.08l.07,0c-.28-3.32-.35-6.34-.34-10.21l0-10.39h3l-.07,24.83h-3.24l-7.85-12.62a76.46,76.46,0,0,1-4.62-8.31l-.11,0c.17,3.13.24,6.12.23,10.25l0,10.61Z" style="fill:#666"/><path d="M954.91,1759.75l-7.55,0V1757l18.38.06v2.72l-7.6,0-.06,22.11h-3.24Z" style="fill:#666"/><path d="M971.72,1757.07l-.07,24.84h-3.2l.07-24.84Z" style="fill:#666"/><path d="M981.29,1774.12l-2.6,7.81h-3.32l8.51-24.81h3.87l8.41,24.86h-3.43l-2.63-7.82Zm8.15-2.48-2.41-7.15c-.55-1.63-.91-3.1-1.28-4.54h-.07c-.37,1.47-.78,3-1.26,4.49l-2.46,7.18Z" style="fill:#666"/><path d="M999.88,1757.15h3.2l-.06,22.15,10.61,0V1782l-13.81,0Z" style="fill:#666"/><path d="M1016.77,1778.13a11.36,11.36,0,0,0,5.74,1.64c3.28,0,5.2-1.72,5.21-4.23,0-2.32-1.32-3.65-4.67-5-4-1.44-6.55-3.55-6.54-7,0-3.87,3.23-6.74,8.06-6.72a11.17,11.17,0,0,1,5.48,1.23l-.89,2.61a10,10,0,0,0-4.71-1.19c-3.39,0-4.69,2-4.69,3.71,0,2.32,1.5,3.47,4.92,4.8,4.2,1.64,6.33,3.67,6.32,7.32,0,3.83-2.86,7.14-8.72,7.12a12.84,12.84,0,0,1-6.33-1.6Z" style="fill:#666"/><line x1="365.87" y1="1932" x2="1246" y2="1932" style="fill:none;stroke:#666;stroke-miterlimit:10;stroke-width:8px"/><polygon points="381.73 1955.24 295 1932 381.73 1908.76 381.73 1955.24" style="fill:#666"/><path d="M619.09,1884.67a45.52,45.52,0,0,1,6.82-.5c4.61,0,7.89,1.09,10.05,3.12s3.49,4.92,3.48,8.93-1.27,7.37-3.6,9.65-6.17,3.55-11,3.54a52.23,52.23,0,0,1-5.82-.31Zm3.15,22a19.84,19.84,0,0,0,3.24.19c6.85,0,10.59-3.8,10.61-10.51,0-5.86-3.26-9.59-10-9.61a17.93,17.93,0,0,0-3.76.33Z" style="fill:#666"/><path d="M647.09,1901.44l-2.6,7.8h-3.32l8.51-24.82h3.87l8.41,24.86h-3.43l-2.63-7.83Zm8.15-2.48-2.41-7.16c-.55-1.62-.91-3.1-1.28-4.53h-.07c-.38,1.48-.78,3-1.27,4.5l-2.45,7.18Z" style="fill:#666"/><path d="M667.54,1887.2l-7.55,0v-2.73l18.39,0v2.73l-7.59,0-.06,22.11h-3.25Z" style="fill:#666"/><path d="M682.35,1901.54l-2.6,7.8h-3.31l8.5-24.81h3.87l8.41,24.86h-3.43l-2.63-7.82Zm8.15-2.48-2.41-7.16c-.55-1.62-.91-3.1-1.27-4.53h-.08c-.37,1.48-.78,3-1.26,4.5L683,1899Z" style="fill:#666"/><path d="M729.94,1896.81c0,8.55-5.23,13.07-11.57,13-6.56,0-11.15-5.12-11.13-12.64,0-7.88,4.94-13,11.57-13C725.59,1884.23,730,1889.44,729.94,1896.81Zm-19.27.35c0,5.31,2.84,10.07,7.89,10.08s8-4.66,8-10.29c0-4.94-2.55-10.11-7.89-10.12S710.68,1891.71,710.67,1897.16Z" style="fill:#666"/><path d="M734.14,1885a34.51,34.51,0,0,1,6.15-.5c3.43,0,5.64.65,7.18,2a6.17,6.17,0,0,1,1.94,4.72,6.53,6.53,0,0,1-4.69,6.33v.11c1.92.67,3.06,2.44,3.64,5a38.57,38.57,0,0,0,1.9,6.82h-3.32a32.4,32.4,0,0,1-1.64-5.93c-.73-3.43-2-4.73-5-4.85h-3l0,10.76h-3.2Zm3.17,11.32h3.28c3.43,0,5.61-1.86,5.62-4.7,0-3.2-2.31-4.61-5.7-4.66a13.09,13.09,0,0,0-3.17.29Z" style="fill:#666"/><path d="M774.6,1898l-9.66,0,0,9,10.76,0v2.7l-14,0,.07-24.84,13.41,0v2.69l-10.21,0,0,7.85,9.66,0Z" style="fill:#666"/><path d="M779.9,1885.12a33.8,33.8,0,0,1,6.16-.5c3.43,0,5.64.65,7.18,2.05a6.21,6.21,0,0,1,1.94,4.72,6.53,6.53,0,0,1-4.7,6.33v.11c1.92.67,3,2.44,3.63,5a40.48,40.48,0,0,0,1.9,6.82H792.7a32.1,32.1,0,0,1-1.65-5.93c-.72-3.43-2-4.73-5-4.85h-3l0,10.76h-3.21Zm3.18,11.32h3.28c3.42,0,5.6-1.86,5.61-4.7,0-3.21-2.31-4.61-5.7-4.66a13.21,13.21,0,0,0-3.17.29Z" style="fill:#666"/><path d="M799.73,1885.18a32.74,32.74,0,0,1,6.15-.5c3.43,0,5.64.64,7.18,2a6.14,6.14,0,0,1,1.94,4.72,6.5,6.5,0,0,1-4.69,6.32v.11c1.91.67,3.05,2.44,3.63,5a38.85,38.85,0,0,0,1.9,6.82h-3.32a32.34,32.34,0,0,1-1.64-5.94c-.73-3.43-2-4.72-5-4.84h-3l0,10.76h-3.21Zm3.17,11.32h3.28c3.43,0,5.61-1.87,5.62-4.7,0-3.21-2.31-4.61-5.7-4.66a13.25,13.25,0,0,0-3.17.28Z" style="fill:#666"/><path d="M840.86,1897.12c0,8.55-5.24,13.07-11.57,13.05-6.56,0-11.16-5.12-11.13-12.63,0-7.89,4.93-13,11.57-13S840.88,1889.75,840.86,1897.12Zm-19.28.35c0,5.31,2.85,10.07,7.9,10.09s8-4.66,8-10.3c0-4.94-2.55-10.1-7.9-10.12S821.6,1892,821.58,1897.47Z" style="fill:#666"/><path d="M845.05,1885.3a33.87,33.87,0,0,1,6.16-.49c3.43,0,5.64.64,7.18,2a6.22,6.22,0,0,1,1.94,4.73,6.52,6.52,0,0,1-4.7,6.32v.11c1.91.67,3,2.44,3.63,5a39.71,39.71,0,0,0,1.9,6.83h-3.32a32.34,32.34,0,0,1-1.64-5.94c-.72-3.43-2.05-4.72-5-4.84h-3l0,10.76H845Zm3.18,11.33h3.28c3.42,0,5.6-1.87,5.61-4.7,0-3.21-2.31-4.62-5.7-4.66a13.38,13.38,0,0,0-3.17.28Z" style="fill:#666"/><path d="M893.58,1899c-.17-3.46-.38-7.63-.34-10.72h-.11c-.85,2.9-1.89,6-3.16,9.42l-4.42,12h-2.43l-4-11.84c-1.17-3.5-2.16-6.71-2.85-9.66h-.07c-.08,3.09-.28,7.26-.51,11l-.69,10.64H872l1.8-24.84,4.09,0,4.2,12c1,3.06,1.87,5.79,2.49,8.37h.11c.63-2.5,1.52-5.22,2.64-8.35l4.45-12h4.09l1.48,24.84h-3.13Z" style="fill:#666"/><path d="M915.14,1898.36l-9.65,0,0,9,10.76,0V1910l-14,0,.07-24.84,13.41,0v2.69l-10.2,0,0,7.85,9.66,0Z" style="fill:#666"/><path d="M920,1906.12a11.35,11.35,0,0,0,5.74,1.63c3.28,0,5.2-1.71,5.21-4.22,0-2.32-1.32-3.65-4.67-5-4.05-1.45-6.55-3.56-6.54-7.06,0-3.87,3.23-6.73,8-6.72a11.29,11.29,0,0,1,5.49,1.23l-.89,2.62a9.77,9.77,0,0,0-4.71-1.19c-3.39,0-4.69,2-4.69,3.7,0,2.32,1.5,3.47,4.92,4.81,4.2,1.63,6.33,3.66,6.32,7.31,0,3.83-2.86,7.14-8.72,7.13a12.84,12.84,0,0,1-6.33-1.61Z" style="fill:#666"/><path d="M938.11,1906.17a11.29,11.29,0,0,0,5.75,1.63c3.28,0,5.2-1.71,5.2-4.22,0-2.32-1.31-3.65-4.66-4.95-4-1.45-6.55-3.56-6.54-7.06,0-3.87,3.22-6.73,8-6.72a11.47,11.47,0,0,1,5.49,1.23l-.89,2.62a9.78,9.78,0,0,0-4.72-1.19c-3.39,0-4.68,2-4.69,3.7,0,2.33,1.5,3.47,4.93,4.81,4.19,1.63,6.32,3.66,6.31,7.31,0,3.84-2.85,7.14-8.71,7.13a13,13,0,0,1-6.34-1.6Z" style="fill:#666"/><path d="M960.75,1902.33l-2.6,7.8h-3.32l8.51-24.81h3.87l8.4,24.86h-3.42l-2.63-7.82Zm8.15-2.49-2.41-7.15c-.55-1.63-.91-3.1-1.28-4.54h-.07c-.38,1.47-.78,3-1.27,4.49l-2.45,7.18Z" style="fill:#666"/><path d="M997.62,1909.14a23.21,23.21,0,0,1-7.64,1.34c-3.75,0-6.85-1-9.27-3.31a12.79,12.79,0,0,1-3.44-9.26c.06-7.4,5.16-12.81,13.49-12.78a15.14,15.14,0,0,1,6.18,1.16l-.78,2.61a12.81,12.81,0,0,0-5.49-1.08c-6,0-10,3.73-10,10s3.77,10,9.55,10a10.49,10.49,0,0,0,4.28-.66l0-7.4-5,0v-2.58l8.18,0Z" style="fill:#666"/><path d="M1015.41,1898.65l-9.66,0,0,9,10.76,0v2.69l-14,0,.07-24.83,13.42,0v2.69l-10.21,0,0,7.85,9.65,0Z" style="fill:#666"/></svg>