<svg id="home" xmlns="http://www.w3.org/2000/svg" viewBox="0 0 58.5 66.7"><title>nginx</title><path d="M.14,33.15c0-5.09.09-10.18.07-15.26a2.32,2.32,0,0,1,1.32-2.27C7.3,12.38,13.06,9.1,18.81,5.83,22.05,4,25.28,2.16,28.5.29a1.66,1.66,0,0,1,1.85,0l19.57,11.5c2.53,1.48,5.06,3,7.6,4.43a1.81,1.81,0,0,1,1,1.77q-.12,15.6-.19,31.18A1.89,1.89,0,0,1,57.21,51L41.85,59.71c-3.86,2.2-7.74,4.37-11.58,6.61a2.12,2.12,0,0,1-2.44,0c-8.5-5-17-10.06-25.55-14.94a3.83,3.83,0,0,1-2.27-4C.17,42.63.11,37.88.14,33.15ZM38.3,38.7l-.2,0q-1.51-1.8-3-3.62c-4.52-5.48-9-11-13.58-16.42a6.34,6.34,0,0,0-6.21-2.19A3.76,3.76,0,0,0,12,20.16q-.12,13-.16,26.06A3.71,3.71,0,0,0,15.68,50a3.82,3.82,0,0,0,3.9-4.09q.08-8.62.11-17.25c0-.3,0-.6,0-1.08l2.52,3q7,8.52,14,17a6.7,6.7,0,0,0,5.67,2.5A4,4,0,0,0,46,45.93l0-4.74q.07-10.32.13-20.65a3.79,3.79,0,0,0-3.73-4,3.73,3.73,0,0,0-4,4c-.06,5.59-.08,11.18-.11,16.77C38.3,37.83,38.3,38.26,38.3,38.7Z" style="fill:#4d4d4d"/></svg>