<svg id="home" xmlns="http://www.w3.org/2000/svg" viewBox="0 0 213.29 190.05"><title>react-grey</title><path d="M171.59,33a98.3,98.3,0,0,1-2.7,24.07c-.36,1.58.05,2.24,1.59,2.72,9.65,3,18.9,6.92,27.29,12.66a42.33,42.33,0,0,1,11.45,10.83c5.82,8.56,5.38,16.92-1.16,25-4.5,5.55-10.21,9.55-16.37,13a112.18,112.18,0,0,1-21.16,9c-1.37.43-1.7,1.06-1.39,2.43a104.52,104.52,0,0,1,2.73,28.74c-.33,6.93-1.57,13.66-5.38,19.63-4.52,7.07-11.21,9.56-19.3,8.54-11-1.38-20.18-6.92-28.87-13.35-3.63-2.68-7-5.67-10.47-8.61-.95-.81-1.51-.58-2.3.15-7.92,7.32-16.46,13.75-26.31,18.27a40.81,40.81,0,0,1-15.1,4c-8.79.43-16.18-4.84-19.48-13.56s-3.57-17.6-2.77-26.61c.53-5.9,1.63-11.76,2.58-17.62.23-1.4-.53-1.59-1.48-2-7-2.86-14-5.41-20.77-8.73-7.28-3.6-13.84-8.35-18.48-15.28C-1.65,98.16-1.18,89.54,4.94,82A53.52,53.52,0,0,1,23.81,67.59c6.17-3,12.64-5.29,19-7.79,1.3-.51,1.67-1,1.36-2.41a105.77,105.77,0,0,1-2.84-27.51C41.71,22.15,42.85,14.55,47.5,8a17.72,17.72,0,0,1,14-7.76c7.44-.44,14.09,2,20.55,5.26,8.76,4.38,16.36,10.4,23.59,16.91,1.08,1,1.57.23,2.24-.39A103.4,103.4,0,0,1,131.76,5c5.76-2.88,11.76-5.06,18.36-5A19.08,19.08,0,0,1,167.9,11.94,49.12,49.12,0,0,1,171.59,33Zm-65,96.78c5.86-.26,11.79-.48,17.72-.85a3.71,3.71,0,0,0,2.58-1.23A212.5,212.5,0,0,0,145,96a3.19,3.19,0,0,0-.07-2.39,211.49,211.49,0,0,0-17.92-31,4.39,4.39,0,0,0-2.84-1.56,73.63,73.63,0,0,0-8.66-.41c-8.93.07-17.85.21-26.78.47A4.2,4.2,0,0,0,86,62.89a106.74,106.74,0,0,0-6.21,9.59c-4,7.13-7.81,14.36-11.64,21.59a2.67,2.67,0,0,0,0,2.11,223.33,223.33,0,0,0,18.14,31.36A3.72,3.72,0,0,0,88.75,129C94.67,129.34,100.6,129.55,106.62,129.81Zm97-35.13a24,24,0,0,0-1.08-3.43A23.82,23.82,0,0,0,195,82.62c-8.18-6.28-17.5-10.2-27.2-13.39-1.41-.47-1.82,0-2.27,1.21-2.74,7.65-5.6,15.25-8.33,22.89a4.55,4.55,0,0,0-.11,2.89c2.84,7.88,5.81,15.71,8.67,23.58.39,1.08.87,1.35,1.9,1,3.33-1.23,6.73-2.3,10-3.68,8.23-3.48,16.09-7.58,22.23-14.33A14.22,14.22,0,0,0,203.6,94.68ZM162,33.41c-.18-2.78-.24-5.58-.59-8.34a43.13,43.13,0,0,0-1.44-6.54c-1.83-6.24-5.92-9.46-11.31-8.63a41.5,41.5,0,0,0-8.95,2.33c-9.63,3.85-17.59,10.25-25.26,17.05-.76.68-.59,1.18,0,1.9,5.46,6.48,10.87,13,16.33,19.49a3.48,3.48,0,0,0,1.83,1.15c8.2,1.45,16.42,2.79,24.61,4.26,1.43.25,2-.07,2.28-1.5A114,114,0,0,0,162,33.41Zm-110.6,123c.05,6.43.44,12.79,3.53,18.66a9.27,9.27,0,0,0,9,5c5.41-.35,10.25-2.33,15-4.84,7.31-3.89,13.69-9.06,19.88-14.5.87-.75.61-1.24,0-2C93.46,152.56,88.2,146.32,83.05,140a5.23,5.23,0,0,0-3.5-2q-11.86-2-23.7-4.06c-1.26-.23-1.75.08-2,1.29A105.17,105.17,0,0,0,51.37,156.45Zm5.25-61.37c-.18-.49-.34-1-.51-1.44-2.9-7.86-5.83-15.72-8.69-23.59-.32-.89-.62-1.25-1.61-.92C34.92,72.69,24.4,77,15.77,84.79a25.66,25.66,0,0,0-5.07,6.58c-1.95,3.54-.6,8,3,11.73,8.87,9.22,20.33,13.74,32.07,17.75,1.1.38,1.51-.15,1.86-1.13,2.72-7.54,5.49-15.08,8.24-22.61Zm105.67,59c-.68-4.66-1.76-11.87-2.78-19.1-.19-1.3-.73-1.46-1.95-1.24-8,1.44-16,2.78-24,4.21a4.58,4.58,0,0,0-2.54,1.13c-5.52,6.5-10.93,13.09-16.39,19.63-.73.87-.6,1.49.25,2.17,3.57,2.85,7,5.91,10.7,8.56,6.77,4.83,13.85,9.08,22.32,10.36,5.39.81,9-1.1,11.28-6.08C161.63,168.31,161.9,162.53,162.29,154.09ZM50.91,35.44c.72,5,1.77,12.09,2.78,19.21.22,1.59,1,1.7,2.43,1.42,7.12-1.36,14.25-2.75,21.43-3.79,2.72-.39,4.62-1.15,6.39-3.45,4.59-6,9.56-11.7,14.45-17.47.84-1,.76-1.61-.17-2.37-3.35-2.71-6.57-5.59-10-8.13-6.64-4.84-13.63-9-21.89-10.57-6.47-1.19-10.17.85-12.63,6.93C51.58,22.36,51.41,27.8,50.91,35.44Zm67.18,15.11c-.51-.71-.79-1.18-1.14-1.59-3-3.47-6.16-6.88-9.12-10.43-1.07-1.29-1.72-1.15-2.68,0-2.85,3.37-5.76,6.69-8.63,10-.47.54-.84,1.16-1.43,2ZM94.61,139.29c3.94,4.43,7.54,8.47,11.11,12.53.77.87,1.35.83,2.08,0,1.76-2,3.61-4,5.35-6s3.4-4.19,5.26-6.49ZM73.8,62.94a7.5,7.5,0,0,0-1.29,0c-4.84.93-9.67,1.91-14.51,2.8-1.3.24-1.38.83-1,1.91,1.67,4.69,3.29,9.4,4.93,14.1a7.43,7.43,0,0,0,.53,1C66.24,76.13,69.93,69.68,73.8,62.94Zm65.67,64c.28.08.43.18.56.16l15.39-3c1.06-.2,1.1-.83.81-1.69-1.37-4-2.71-8.08-4.1-12.12-.34-1-.81-2-1.32-3.21C146.91,114,143.21,120.43,139.47,127Zm-77-19.58c-.26.57-.49,1-.63,1.37-1.52,4.42-3,8.85-4.55,13.24-.54,1.51-.06,2.14,1.42,2.41,4.74.87,9.47,1.79,14.2,2.68a3.71,3.71,0,0,0,1-.12ZM151,82.91c1.82-5.42,3.53-10.51,5.22-15.6.38-1.12-.4-1.44-1.26-1.61-4.74-.92-9.47-1.85-14.2-2.75a5.86,5.86,0,0,0-1.27.07Z" style="fill:#4d4d4d"/><path d="M86.76,94.82A19.85,19.85,0,1,1,106.63,115C95.18,114.9,86.28,105.36,86.76,94.82Z" style="fill:#4d4d4d"/></svg>