<svg id="Layer_1" data-name="Layer 1" xmlns="http://www.w3.org/2000/svg" viewBox="0 0 840 237"><title>Artboard 1</title><g id="text"><g id="text-2" data-name="text"><g style="isolation:isolate"><path d="M105.94,106.76h33v19.48q-.25,14.37-9.54,24.07t-23.53,9.91Q94.91,160,87.59,154.7A31.7,31.7,0,0,1,76.78,143c-.68-1.44-1.29-2.82-1.84-4.14a26.68,26.68,0,0,1-1.27-5.12q-1-5.77-1-22.2,0-16.68,1-22.33a26.78,26.78,0,0,1,3.11-9.13A32.66,32.66,0,0,1,87.59,68.26q7.32-5.25,18.25-5.38,13.43.13,21.88,8.21A36.44,36.44,0,0,1,138.4,91.25H123.5a21.34,21.34,0,0,0-6.24-9.9,18,18,0,0,0-11.46-4,19,19,0,0,0-8.54,2,17.79,17.79,0,0,0-5.85,4.94,16,16,0,0,0-3.63,8q-1,5.14-1,19.29t1,19.15a16.13,16.13,0,0,0,3.63,8.1,16.48,16.48,0,0,0,5.86,4.8,16.11,16.11,0,0,0,8.54,2.18,17.69,17.69,0,0,0,13.57-5.8q5.36-5.53,5.48-14.56v-5H105.94Z" style="fill:#e535ab"/><path d="M156.72,91.25H170v7.23h.27a21.74,21.74,0,0,1,31.06-2.85l-9.68,11.85a13.69,13.69,0,0,0-8.72-3.43,12.28,12.28,0,0,0-8.73,3.42q-4.08,3.36-4.2,10.86v41.1H156.72Z" style="fill:#e535ab"/><path d="M241.32,153.39h-.25a11.13,11.13,0,0,1-5.73,5.12q-3.81,1.71-10.55,1.71-11.07-.14-17-6a19.16,19.16,0,0,1-6.3-14.78,19.65,19.65,0,0,1,5.47-14.25q5.46-5.78,16-5.91h18.38v-7.19q.13-9-13.55-8.78a23.35,23.35,0,0,0-7.82,1,9.65,9.65,0,0,0-4.71,4.23l-10.43-8.22q7.56-10.2,22.31-9.93,12.45-.14,19.89,4.86t7.57,17.6v46.57H241.32Zm0-22.86H225.39q-11.61.25-11.47,8.21a7.4,7.4,0,0,0,3,5.92q2.88,2.68,9.5,2.69,8.34.14,11.79-2,3.12-2.16,3.12-9.85Z" style="fill:#e535ab"/><path d="M273.9,91.25h13.26v7.1a22.52,22.52,0,0,1,17-7.95q12.14.33,17.74,8.93a18.22,18.22,0,0,1,3.74,8.47q.94,5.19.95,17.61,0,12.08-.95,17.34a19.13,19.13,0,0,1-3.75,8.6,20,20,0,0,1-7.19,6.31,22.49,22.49,0,0,1-10.55,2.56,18,18,0,0,1-9.09-2.29,28.65,28.65,0,0,1-7.94-5.75V187H273.9Zm26.3,55.31a13.18,13.18,0,0,0,7.45-1.84,10.43,10.43,0,0,0,3.88-4.88,26.05,26.05,0,0,0,1.72-6.85c.08-2.46.13-5,.13-7.58s-.05-5.38-.13-8a24.45,24.45,0,0,0-1.72-6.85,9.66,9.66,0,0,0-3.88-4.88,14.41,14.41,0,0,0-7.45-1.65,11.66,11.66,0,0,0-7.06,1.92,11.11,11.11,0,0,0-4,5,25.59,25.59,0,0,0-1.59,6.73,76,76,0,0,0-.38,7.71,67.85,67.85,0,0,0,.38,7.25,25.81,25.81,0,0,0,1.59,6.92,11.19,11.19,0,0,0,4,5A11.47,11.47,0,0,0,300.2,146.56Z" style="fill:#e535ab"/><path d="M343.72,63.67H357V98.48h.25a21,21,0,0,1,17.16-8.08,22.23,22.23,0,0,1,15,6q6.74,6,7.05,17.73v45.32H383.2V118.79q0-7.17-3.69-10.92a12.36,12.36,0,0,0-9.36-3.82,12.55,12.55,0,0,0-9.42,3.82Q357,111.62,357,118.79v40.64H343.72Z" style="fill:#e535ab"/><path d="M469,151.92q-8.2,8-21.87,8.3-11-.27-18.26-5.52A31.7,31.7,0,0,1,418.07,143c-.68-1.44-1.29-2.82-1.84-4.14a27.44,27.44,0,0,1-1.27-5.12q-1-5.77-1-22.2,0-16.68,1-22.33a26.78,26.78,0,0,1,3.11-9.13,32.66,32.66,0,0,1,10.81-11.83q7.32-5.25,18.25-5.38,11.07.13,18.44,5.38a31.75,31.75,0,0,1,10.56,11.83,22.34,22.34,0,0,1,3.24,9.13q.83,5.64.83,22.33,0,14.91-.64,20.82a25.72,25.72,0,0,1-2.73,9.2l12.25,10.05-8.35,10Zm-23.37-19.24,8.34-9.94,10.84,8.88q1.33-4.86,1.34-20.07,0-14.16-1-19.29a17,17,0,0,0-3.76-8,16.88,16.88,0,0,0-5.61-4.94,20,20,0,0,0-8.73-2,19,19,0,0,0-8.54,2,17.83,17.83,0,0,0-5.86,4.94,16,16,0,0,0-3.63,8q-1,5.14-1,19.29t1,19.15a16.13,16.13,0,0,0,3.63,8.1,16.48,16.48,0,0,0,5.86,4.8,16.11,16.11,0,0,0,8.54,2.18q6.5,0,10.39-3.36Z" style="fill:#e535ab"/><path d="M498,63.67h13.26V141.9q0,4.66,5,4.66h4.6v12.87h-5.92q-7.25,0-11.95-3.73-5-3.8-5-12.75Z" style="fill:#e535ab"/><path d="M581.41,138H546.23l-7.12,21.42H524.22l33.72-95.76H569.7l33.72,95.76H588.6Zm-4-12.86L564,83.26h-.26L550.3,125.15Z" style="fill:#e535ab"/><path d="M612.3,91.25h13.26V131.9q0,6.9,3.75,10.78a12.42,12.42,0,0,0,9.42,3.88,12.19,12.19,0,0,0,9.35-3.88q3.7-3.87,3.7-10.78V91.25H665v68.18H651.77v-7.29h-.25a20.94,20.94,0,0,1-17.1,8.08,22,22,0,0,1-14.81-6.16q-7.18-5.91-7.31-17.44Z" style="fill:#e535ab"/><path d="M685.34,70.5H698.6V91.25h9.67v10.51H698.6v39.75q-.14,5.19,4.7,5.05h5v12.87h-6.93A15.48,15.48,0,0,1,689.91,155q-4.57-4.26-4.57-12.34V101.76h-6.66V91.25h6.66Z" style="fill:#e535ab"/><path d="M721.93,63.67h13.25V98.48h.26A21,21,0,0,1,752.6,90.4a22.18,22.18,0,0,1,15,6q6.74,6,7.06,17.73v45.32H761.4V118.79q0-7.17-3.69-10.92a12.36,12.36,0,0,0-9.36-3.82,12.55,12.55,0,0,0-9.41,3.82q-3.77,3.75-3.76,10.92v40.64H721.93Z" style="fill:#e535ab"/></g></g></g></svg>