<svg id="home" xmlns="http://www.w3.org/2000/svg" viewBox="0 0 357.63 277.26"><title>Artboard 2</title><path d="M86.24,185.79,2.24,0h41L91.88,106,140.19,1H181L97.7,185.81Z"/><path d="M259.11,0l87.71,185.81h-41L252.78,73,195.27,185.81H153.62L248.23,0Z"/><path d="M39.75,270.47A11.49,11.49,0,0,1,35.1,275a15.73,15.73,0,0,1-7.71,1.69A18.42,18.42,0,0,1,19.45,275a14,14,0,0,1-5.61-4.46,12.69,12.69,0,0,1-2.37-6.41h6.18a8.77,8.77,0,0,0,4.5,6.7,9.86,9.86,0,0,0,5,1.17A7.9,7.9,0,0,0,33,270a7.1,7.1,0,0,0,2-5.22,6.77,6.77,0,0,0-1.44-4.48,10.26,10.26,0,0,0-3.53-2.66,48.65,48.65,0,0,0-5.73-2.13,55.7,55.7,0,0,1-6.86-2.62,11.6,11.6,0,0,1-4.41-3.72,10.75,10.75,0,0,1-1.84-6.55,11.42,11.42,0,0,1,1.67-6.21,11.15,11.15,0,0,1,4.84-4.15,17.48,17.48,0,0,1,7.41-1.48q6.63,0,10.54,3.2a12.3,12.3,0,0,1,4.5,8.17l-6.2,0a8.47,8.47,0,0,0-2.76-4.69,8.69,8.69,0,0,0-6.06-2,8.29,8.29,0,0,0-5.6,1.83,6.45,6.45,0,0,0-2.09,5.13,6.37,6.37,0,0,0,1.39,4.24,9.45,9.45,0,0,0,3.37,2.54,53.68,53.68,0,0,0,5.6,2.06,56.15,56.15,0,0,1,7,2.66,11.82,11.82,0,0,1,4.49,3.84,11.51,11.51,0,0,1,1.87,6.84A12,12,0,0,1,39.75,270.47Z"/><path d="M81.88,233.28a21.43,21.43,0,0,1,8,8.34A26.6,26.6,0,0,1,90,265.86a21.38,21.38,0,0,1-8,8.37,22.29,22.29,0,0,1-11.41,3,22.61,22.61,0,0,1-11.55-3A21.09,21.09,0,0,1,50.92,266a26.57,26.57,0,0,1-.07-24.24,21.25,21.25,0,0,1,8.07-8.38,22.83,22.83,0,0,1,11.47-3A22.42,22.42,0,0,1,81.88,233.28Zm-19.94,4.77a15.07,15.07,0,0,0-5.84,6.26,22.45,22.45,0,0,0,0,19A15.05,15.05,0,0,0,62,269.57a16.52,16.52,0,0,0,8.49,2.16,16.24,16.24,0,0,0,8.41-2.24,15.28,15.28,0,0,0,5.83-6.28,22.38,22.38,0,0,0,0-19A15.1,15.1,0,0,0,78.84,238,17.48,17.48,0,0,0,61.94,238.05Z"/><path d="M106.93,271.91l16,0v5l-22,.06-.12-46,6,0Z"/><path d="M134.8,230.88l.07,27.49c0,4.51,1,7.83,3,10a10.52,10.52,0,0,0,8.15,3.2,10.14,10.14,0,0,0,8-3.28q2.88-3.25,2.86-9.95l-.08-27.49,6,0,.07,27.5q0,9.34-4.59,14.07t-12.37,4.72q-7.71,0-12.34-4.68t-4.66-14l-.08-27.5Z"/><path d="M199.73,230.71v5l-13,0,.1,40.95-6,0-.11-41-13,0,0-5Z"/><path d="M211.72,230.67l.12,46h-6l-.12-45.95Z"/><path d="M253.79,232.82a21.41,21.41,0,0,1,8,8.34,26.57,26.57,0,0,1,.06,24.24,21.34,21.34,0,0,1-8,8.38,22.27,22.27,0,0,1-11.4,3,22.65,22.65,0,0,1-11.55-3,21.18,21.18,0,0,1-8.11-8.34,26.48,26.48,0,0,1-.06-24.24,21.07,21.07,0,0,1,8.06-8.37,22.62,22.62,0,0,1,11.47-3A22.33,22.33,0,0,1,253.79,232.82Zm-19.95,4.79a15,15,0,0,0-5.79,6.26,22.45,22.45,0,0,0,0,19,15,15,0,0,0,5.86,6.25,16.6,16.6,0,0,0,8.49,2.16,16.26,16.26,0,0,0,8.41-2.24,15.5,15.5,0,0,0,5.84-6.28,22.38,22.38,0,0,0-.05-19,15.15,15.15,0,0,0-5.88-6.23,17.46,17.46,0,0,0-16.89.05Z"/><path d="M308.74,276.37h-5.86l-24.21-36.24.1,36.31h-6l-.13-45.95h5.86l24.21,36.3-.1-36.37h6Z"/><path d="M345.09,269.64a11.4,11.4,0,0,1-4.64,4.49,15.62,15.62,0,0,1-7.7,1.74,18.34,18.34,0,0,1-7.93-1.6,14.21,14.21,0,0,1-5.61-4.46,12.65,12.65,0,0,1-2.4-6.45l6.22,0a8.78,8.78,0,0,0,4.5,6.71,10.12,10.12,0,0,0,5,1.17,8,8,0,0,0,5.86-2.06,7,7,0,0,0,2-5.22,6.71,6.71,0,0,0-1.44-4.48,10.17,10.17,0,0,0-3.53-2.67,47,47,0,0,0-5.74-2.12,57.26,57.26,0,0,1-6.85-2.63,11.57,11.57,0,0,1-4.41-3.71,10.81,10.81,0,0,1-1.83-6.55,11.36,11.36,0,0,1,1.67-6.2,11.13,11.13,0,0,1,4.83-4.15,17.53,17.53,0,0,1,7.42-1.49q6.62,0,10.52,3.2a12.32,12.32,0,0,1,4.5,8.17H339.3a8.42,8.42,0,0,0-2.75-4.7,8.66,8.66,0,0,0-6.05-2,8.22,8.22,0,0,0-5.59,1.83,7.28,7.28,0,0,0-.71,9.37,9.59,9.59,0,0,0,3.41,2.54,53,53,0,0,0,5.61,2,55.87,55.87,0,0,1,7,2.66,11.82,11.82,0,0,1,4.49,3.84,11.5,11.5,0,0,1,1.88,6.84A12,12,0,0,1,345.09,269.64Z"/><rect y="204.79" width="357.63" height="9.99" rx="2.72"/></svg>